<svg width="161" height="120" viewBox="0 0 161 120" fill="none" xmlns="http://www.w3.org/2000/svg">
<g clip-path="url(#clip0_133_8914)">
<path fill-rule="evenodd" clip-rule="evenodd" d="M53.2676 48.5945C40.4994 47.2061 31.7212 45.8176 26.3345 60.6937C10.5737 67.0408 12.1697 70.016 2.19452 83.7019C-1.19705 88.4623 -0.598539 89.0573 2.99254 92.6276C8.17965 97.9829 8.77817 99.9664 11.1722 102.347C15.5613 106.314 23.1425 108.892 30.1251 111.471C34.9132 113.256 35.1127 113.256 38.9033 116.429C40.1003 117.421 41.2974 118.413 42.4944 118.611C46.8835 119.206 51.4721 115.239 52.6691 116.231C52.0706 116.628 49.2775 119.008 51.2726 119.603C52.2701 119.801 54.2652 119.206 56.0607 118.611C56.8587 118.413 57.8562 118.016 58.6543 117.818C58.6543 118.016 58.6543 119.404 58.8538 120.198H80.5997L83.1933 86.2804L80.5997 38.4788L70.2255 36.0986C70.026 37.8838 69.8265 39.4705 69.627 41.2557C64.2404 42.8424 58.0557 45.2226 53.2676 48.5945ZM57.0582 106.909C56.6592 106.115 56.4597 105.52 56.0607 104.727C55.4622 103.537 54.6642 102.743 52.8686 103.14C49.2775 103.933 48.28 106.512 43.0929 108.297C35.5117 102.148 31.5217 93.0243 25.337 88.6606C32.9182 86.4788 37.7063 82.7102 41.6964 75.9664C45.6865 87.6689 47.083 89.454 56.6592 100.561C56.8587 102.545 56.8587 104.528 57.0582 106.909Z" fill="#EAAF87"/>
<path fill-rule="evenodd" clip-rule="evenodd" d="M58.6542 117.62C58.6542 117.818 58.8537 119.206 58.8537 120H60.8487C60.2502 114.446 59.6517 105.322 59.2527 103.339C58.8537 100.958 58.6542 98.5782 60.2502 95.008L57.2576 96.9914C47.6814 87.4708 47.6814 84.4956 42.4943 72.5947L41.6963 76.3633C45.6864 87.8675 47.0829 89.6526 56.6591 100.76C56.8586 102.545 56.8586 104.727 57.0581 107.107C57.4571 108.496 60.0507 114.843 58.6542 117.62Z" fill="#E5A278"/>
<path fill-rule="evenodd" clip-rule="evenodd" d="M53.2676 48.5947C40.4994 47.2063 31.7212 45.8179 26.3345 60.6939C10.5737 67.041 12.1697 70.0162 2.19452 83.7021C-1.19705 88.4625 -0.598539 89.0575 2.99254 92.6278C8.17965 97.9831 8.77817 99.9666 11.1722 102.347C15.5613 106.314 23.1425 108.892 30.1251 111.471C34.9132 113.256 35.1127 113.256 38.9033 116.429C40.1003 117.421 41.2974 118.413 42.4944 118.611C46.8835 119.206 51.4721 115.239 52.6691 116.231C52.2701 116.628 50.8736 117.818 50.6741 118.611C51.6716 118.016 53.2676 117.818 55.0632 115.834C56.6592 114.049 52.4696 114.248 51.2726 114.644C46.684 116.231 44.6889 116.826 43.2924 116.628C41.2974 116.429 40.4994 114.446 35.7113 110.479C34.7137 109.686 33.5167 108.892 31.9207 107.9C20.7484 101.752 16.1598 101.752 5.38659 91.2393C2.79304 88.6608 2.39403 87.2724 4.98758 83.5038C10.7732 75.3716 18.7534 62.479 28.9281 63.4707C29.5266 55.5369 33.7162 51.9666 38.9033 50.3798C43.4919 49.1897 49.6766 49.9831 56.2602 49.7848C58.8538 48.3964 69.8265 43.8344 70.824 41.4542C71.622 39.6691 71.622 37.884 71.223 35.9005L70.2255 35.7021C70.026 37.4873 69.8265 39.074 69.627 40.8592C64.2404 42.8426 58.0557 45.2228 53.2676 48.5947ZM66.8339 120H63.8414C64.0409 117.421 64.6394 113.058 65.4374 109.884C62.8438 103.339 63.4424 102.545 63.0433 95.603C65.8364 107.107 66.2354 109.686 78.2057 108.297C73.8166 110.677 72.8191 110.082 67.8315 110.677C67.2329 113.454 67.0334 117.619 66.8339 120ZM78.8042 56.7269C78.8042 66.6443 78.2057 71.0079 74.6146 73.3881C68.43 77.5534 60.6493 78.3468 54.8637 77.355C50.6741 76.5616 49.078 75.5699 45.088 72.7931C44.0904 74.7765 43.0929 76.5616 42.2949 78.3468C42.0954 77.5534 41.6964 76.9583 41.4969 75.9666C37.3073 82.9088 32.5192 86.479 25.1375 88.6608C31.3222 93.0245 35.3122 102.347 42.8934 108.297C48.28 106.314 49.2775 103.934 52.6691 103.14C53.2676 102.942 53.8661 102.942 54.2652 103.14C49.6766 104.727 46.684 109.091 42.8934 109.289C40.2999 109.487 26.7336 95.0079 24.7385 92.4294C21.5464 88.4625 19.3519 82.7104 13.9653 78.9418C19.9504 80.3302 21.5464 82.7104 23.741 86.0823C27.5316 84.2972 39.5018 78.7435 40.6989 70.2145C40.8984 68.6278 37.1078 67.636 31.7212 65.4542C35.9108 65.6526 38.9033 66.2476 41.6964 64.8592C44.4894 63.6691 46.8835 60.4955 50.0756 58.1154C43.6914 65.6526 43.0929 71.603 54.4647 74.1815C62.2453 75.9666 69.627 73.5864 73.6171 70.8096C77.6072 68.2311 77.2082 64.0658 78.8042 56.7269ZM48.8785 91.2393C48.8785 87.4707 49.4771 83.9005 50.8736 78.7435C51.0731 84.6939 50.6741 89.8509 51.2726 94.4129C50.4746 93.2228 49.6766 92.2311 48.8785 91.2393Z" fill="#E5A278"/>
<path fill-rule="evenodd" clip-rule="evenodd" d="M70.026 35.7021C70.026 38.8757 69.627 41.6526 69.228 44.8261C69.8265 49.9831 76.4102 51.7683 80.5998 53.7517V37.6856L80.2008 36.4955L70.026 35.7021Z" fill="#E5A278"/>
<path fill-rule="evenodd" clip-rule="evenodd" d="M80.4002 100.76V104.727C79.6022 100.562 79.2032 94.2147 79.0037 93.818C78.6047 93.223 77.4076 93.6197 75.0136 94.2147C72.2205 94.8097 66.6344 94.8097 63.6418 91.8345C67.6319 93.818 73.4176 93.0246 76.8091 91.8345C78.8042 91.2395 78.6047 90.6444 78.6047 86.6775C78.6047 84.694 78.4052 82.7106 77.6072 82.3139C73.6171 80.5287 69.228 81.7188 64.8389 81.7188C70.2255 80.1321 73.6171 78.942 79.0037 80.9254L80.5997 74.1816V100.76H80.4002Z" fill="#E5A278"/>
<path fill-rule="evenodd" clip-rule="evenodd" d="M107.533 48.5945C120.301 47.2061 129.079 45.8176 134.466 60.6937C150.227 67.0408 148.631 70.016 158.606 83.7019C161.997 88.4623 161.399 89.0573 157.808 92.6276C152.621 97.9829 152.022 99.9664 149.628 102.347C145.239 106.314 137.658 108.892 130.675 111.471C125.887 113.256 125.688 113.256 121.897 116.429C120.7 117.421 119.503 118.413 118.306 118.611C113.917 119.206 109.328 115.239 108.131 116.231C108.73 116.628 111.523 119.008 109.528 119.603C108.53 119.801 106.535 119.206 104.74 118.611C103.942 118.413 102.944 118.016 102.146 117.818C102.146 118.016 102.146 119.404 101.947 120.198H80.4001V38.4788L90.7744 36.0986C90.9739 37.8838 91.1734 39.4705 91.3729 41.2557C96.56 42.8424 102.745 45.2226 107.533 48.5945ZM103.942 106.909C104.341 106.115 104.54 105.52 104.939 104.727C105.538 103.537 106.336 102.743 108.131 103.14C111.722 103.933 112.72 106.512 117.907 108.297C125.488 102.148 129.478 93.0243 135.663 88.6606C128.082 86.4788 123.294 82.7102 119.303 75.9664C115.313 87.6689 113.917 89.454 104.341 100.561C104.141 102.545 104.141 104.528 103.942 106.909Z" fill="#E5A278"/>
<path fill-rule="evenodd" clip-rule="evenodd" d="M102.146 117.62C102.146 117.818 102.146 119.206 101.947 120H99.9517C100.55 114.248 101.149 105.322 101.548 103.339C101.947 100.958 102.146 98.5782 100.55 95.008L103.543 96.9914C113.119 87.4708 113.119 84.4956 118.306 72.5947L119.104 76.3633C115.114 87.8675 113.717 89.6526 104.141 100.76C103.942 102.545 103.942 104.727 103.742 107.107C103.543 108.496 100.75 114.843 102.146 117.62Z" fill="#D9966C"/>
<path fill-rule="evenodd" clip-rule="evenodd" d="M107.533 48.5947C120.301 47.2063 129.079 45.8179 134.466 60.6939C150.227 67.041 148.631 70.0162 158.606 83.7021C161.998 88.4625 161.399 89.0575 157.808 92.6278C152.621 97.9831 152.022 99.9666 149.628 102.347C145.239 106.314 137.658 108.892 130.675 111.471C125.887 113.256 125.688 113.256 121.897 116.429C120.7 117.421 119.503 118.413 118.306 118.611C113.917 119.206 109.328 115.239 108.131 116.231C108.53 116.628 109.927 117.818 110.126 118.611C109.129 118.016 107.533 117.818 105.737 115.834C104.141 114.049 108.331 114.248 109.528 114.644C114.117 116.231 116.112 116.826 117.508 116.628C119.503 116.429 120.301 114.446 125.089 110.479C126.087 109.686 127.284 108.892 128.88 107.9C140.052 101.752 144.641 101.752 155.414 91.2393C158.008 88.6608 158.407 87.2724 155.813 83.5038C150.027 75.3716 142.047 62.479 131.872 63.4707C131.274 55.5369 127.084 51.9666 121.897 50.3798C117.309 49.1897 111.124 49.9831 104.54 49.7848C101.947 48.3964 90.974 43.8344 89.9765 41.4542C89.1785 39.6691 89.1785 37.884 89.5775 35.9005L90.575 35.7021C90.7745 37.4873 90.974 39.074 91.1735 40.8592C96.5602 42.8426 102.745 45.2228 107.533 48.5947ZM94.1661 120H97.1587C96.9592 117.421 96.3607 113.058 95.5626 109.884C98.1562 103.339 97.5577 102.545 97.9567 95.603C95.1636 107.107 94.7646 109.686 82.7944 108.297C87.1835 110.677 88.181 110.082 93.1686 110.677C93.7671 113.454 93.9666 117.619 94.1661 120ZM81.9963 56.7269C81.9963 66.6443 82.5949 71.0079 86.1859 73.3881C92.3706 77.5534 100.151 78.3468 105.937 77.355C110.126 76.5616 111.722 75.5699 115.713 72.7931C116.71 74.7765 117.708 76.5616 118.506 78.3468C118.705 77.5534 119.104 76.9583 119.304 75.9666C123.493 82.9088 128.281 86.479 135.663 88.6608C129.478 93.0245 125.488 102.347 117.907 108.297C112.521 106.314 111.523 103.934 108.131 103.14C107.533 102.942 106.934 102.942 106.535 103.14C111.124 104.727 114.117 109.091 117.907 109.289C120.501 109.487 134.067 95.0079 136.062 92.4294C139.254 88.4625 141.449 82.7104 146.835 78.9418C140.85 80.3302 139.254 82.7104 137.06 86.0823C133.269 84.2972 121.299 78.7435 120.102 70.2145C119.902 68.6278 123.693 67.636 129.079 65.4542C124.89 65.6526 121.897 66.2476 119.104 64.8592C116.311 63.6691 113.917 60.4955 110.725 58.1154C117.109 65.6526 117.708 71.603 106.336 74.1815C98.5552 75.9666 91.1735 73.5864 87.1835 70.8096C83.3929 68.2311 83.7919 64.0658 81.9963 56.7269ZM111.922 91.2393C111.922 87.4707 111.323 83.9005 109.927 78.7435C109.727 84.6939 110.126 89.8509 109.528 94.4129C110.525 93.2228 111.323 92.2311 111.922 91.2393Z" fill="#D9966C"/>
<path fill-rule="evenodd" clip-rule="evenodd" d="M90.9739 35.7021C90.9739 38.8757 91.3729 41.6526 91.7719 44.8261C91.1734 49.9831 84.5897 51.7683 80.4001 53.7517V37.6856L80.7992 36.4955L90.9739 35.7021Z" fill="#D9966C"/>
<path fill-rule="evenodd" clip-rule="evenodd" d="M80.4001 100.76V104.727C81.1982 100.562 81.5972 94.2148 81.7967 93.8181C82.1957 93.2231 83.3927 93.6198 85.7868 94.2148C88.5798 94.8098 93.3679 94.6115 96.56 91.6363C92.5699 93.6198 87.5823 93.0247 84.1907 91.8346C82.1957 91.2396 82.3952 90.6446 82.3952 86.6776C82.3952 84.6941 82.5947 82.7107 83.3927 82.314C87.3828 80.5289 90.9739 81.5206 95.363 81.5206C89.9764 79.9338 87.3828 78.9421 81.9962 80.7272L80.4001 73.9834V100.76Z" fill="#D9966C"/>
<path fill-rule="evenodd" clip-rule="evenodd" d="M92.5699 23.8016C93.1684 23.0083 93.3679 23.2066 93.7669 23.4049C94.5649 23.6033 94.1659 24.595 94.1659 25.5868C94.1659 26.1818 94.3654 26.7768 94.3654 27.9669C94.3654 29.7521 93.3679 30.7438 92.3704 32.3306C92.1709 32.5289 91.5723 32.9256 91.1733 32.5289L91.9714 24.7934L92.5699 23.8016Z" fill="#E5A278"/>
<path fill-rule="evenodd" clip-rule="evenodd" d="M68.2304 23.9999C67.6318 23.2065 67.4323 23.4048 67.0333 23.6032C66.2353 23.8015 66.6343 24.7933 66.6343 25.785C66.6343 26.38 66.4348 26.9751 66.4348 28.1652C66.4348 29.9503 67.4323 30.942 68.4299 32.5288C68.6294 32.7272 69.2279 33.1238 69.6269 32.7272L68.8289 24.9916L68.2304 23.9999Z" fill="#EAAF87"/>
<path fill-rule="evenodd" clip-rule="evenodd" d="M80.5997 46.4131C78.6047 46.4131 77.6072 46.4131 76.6097 46.0164C75.6121 45.6197 75.2131 44.628 73.8166 43.2395C72.6196 42.0495 70.6245 41.0577 70.2255 39.8676C69.627 38.2809 69.8265 36.4957 69.4275 33.9172C69.228 31.9338 68.2305 30.1486 68.2305 28.3635C68.2305 26.38 68.6295 24.1982 68.6295 22.0164C68.6295 17.6528 68.6295 14.6776 71.223 12.4957C72.0211 11.9007 72.8191 11.3057 73.8166 10.909H74.0161C74.0161 10.909 74.0161 10.909 74.2156 10.909C74.2156 10.909 74.2156 10.909 74.4151 10.909C74.4151 10.909 74.4151 10.909 74.6146 10.909H74.8141C74.8141 10.909 74.8141 10.909 75.0136 10.909H75.2131C75.2131 10.909 75.4126 10.909 75.4126 10.7106C80.2007 9.12383 86.3854 9.71887 89.9764 12.8924C92.7695 15.0742 92.57 17.8511 92.57 22.4131C92.57 24.7933 92.969 26.7767 92.969 28.7602C92.969 30.7437 91.9715 32.5288 91.772 34.3139C91.373 36.8924 91.772 38.6776 90.974 40.2643C90.575 41.4544 88.3804 42.6445 87.3829 43.6362C85.9864 45.0247 85.5874 46.0164 84.5898 46.4131C83.3928 46.2147 82.3953 46.4131 80.5997 46.4131Z" fill="#EAAF87"/>
<path fill-rule="evenodd" clip-rule="evenodd" d="M80.5997 46.4132L80.4001 9.32227C83.7917 9.32227 87.1833 10.314 89.5774 12.2975C92.3704 14.4793 92.1709 17.2561 92.1709 21.8181C92.1709 24.1983 92.5699 26.1818 92.5699 28.1652C92.5699 30.1487 91.5724 31.9338 91.3729 33.719C90.9739 36.2975 91.3729 38.0826 90.5749 39.6694C90.1759 40.8595 87.9813 42.0495 86.9838 43.0413C85.5873 44.4297 85.1883 45.4214 84.1907 45.8181C83.3927 46.2148 82.3952 46.4132 80.5997 46.4132Z" fill="#E5A278"/>
<path fill-rule="evenodd" clip-rule="evenodd" d="M77.6071 22.215C77.6071 22.0166 77.4075 21.8183 77.0085 21.6199V21.8183C76.6095 21.4216 76.2105 21.4216 75.8115 21.2232C76.2105 21.4216 76.41 21.6199 76.41 21.8183C76.011 21.4216 75.8115 21.2232 75.213 21.0249C74.016 20.4298 72.8189 20.2315 71.4224 20.4298C70.6244 20.4298 70.4249 20.6282 70.0259 20.6282C70.2254 20.6282 70.4249 20.6282 70.4249 20.6282C69.6269 20.8265 69.0284 21.4216 68.8289 22.215C69.4274 21.6199 70.0259 21.2232 71.0234 21.4216C71.8214 21.4216 72.2204 21.8183 73.4175 22.215L73.617 21.8183C74.2155 22.0166 74.814 22.4133 75.4125 22.81C76.41 23.2067 76.41 23.0084 76.809 23.2067C77.208 23.4051 77.4075 23.4051 77.4075 23.4051C77.8066 23.2067 77.8066 22.81 77.6071 22.215Z" fill="#0D0501"/>
<path fill-rule="evenodd" clip-rule="evenodd" d="M82.5947 22.215C82.5947 22.0166 82.7942 21.8183 83.1932 21.6199V21.8183C83.5922 21.4216 83.9912 21.4216 84.3902 21.2232C83.9912 21.4216 83.7917 21.6199 83.7917 21.8183C84.1907 21.4216 84.3902 21.2232 84.9887 21.0249C86.1857 20.4298 87.3828 20.2315 88.7793 20.4298C89.5773 20.4298 89.7768 20.6282 90.1758 20.6282C89.9763 20.6282 89.7768 20.6282 89.7768 20.6282C90.5748 20.8265 91.1733 21.4216 91.3728 22.215C90.7743 21.6199 90.1758 21.2232 89.1783 21.4216C88.3803 21.4216 87.9813 21.8183 86.7843 22.215L87.1833 22.0166C86.5847 22.215 85.9862 22.6117 85.3877 23.0084C84.3902 23.4051 84.3902 23.2067 83.9912 23.4051C83.5922 23.6034 83.3927 23.6034 83.3927 23.6034C82.5947 23.2067 82.3952 22.81 82.5947 22.215Z" fill="#0D0501"/>
<path fill-rule="evenodd" clip-rule="evenodd" d="M84.5898 14.2809C81.7967 14.0825 80.2007 13.0908 77.4076 14.4792C75.2131 14.0825 72.6195 13.6858 71.8215 14.6776C71.223 15.2726 70.824 16.2644 71.4225 18.2478L70.425 17.2561C69.8265 19.6363 69.627 20.4296 69.8265 22.8098L68.4299 21.8181C68.6294 25.9834 69.0285 26.9751 69.228 30.7437C67.4324 27.5701 68.2304 23.9999 66.2354 22.6115C65.8364 17.8511 65.8364 17.4544 66.8339 12.6941L65.6369 13.2892C66.0359 12.4958 66.2354 11.9007 66.6344 11.3057C66.0359 11.3057 65.4374 11.7024 64.8389 12.4958C66.0359 10.1156 68.4299 9.12386 70.026 6.7437C69.228 6.54535 68.4299 7.14039 67.8314 7.53709C69.0285 4.95857 70.6245 4.56188 72.6195 3.57014C72.021 2.57841 72.021 2.77675 71.8215 1.58667C73.4176 3.17345 76.2106 2.77675 77.8067 2.57841C77.0086 1.98337 76.4101 1.58667 76.6096 0.198242C77.2081 1.38832 77.8067 1.38832 78.8042 1.78502L78.2057 0.793284C80.2007 1.98337 81.5972 2.57841 83.7918 3.17345C85.7868 3.57014 90.5749 6.347 90.9739 3.96684C91.3729 4.95857 91.1734 5.55361 90.3754 5.95031C91.373 5.95031 91.772 5.95031 92.7695 5.75196C92.3705 5.95031 91.9715 6.14866 91.5725 6.347C94.7645 8.13213 94.166 9.32221 94.7645 13.0908C94.3655 11.504 94.166 11.1073 93.368 9.7189C93.767 11.3057 94.565 13.2892 94.7645 14.4792C94.964 16.2644 94.3655 17.6528 94.166 19.0412C94.166 19.6363 94.565 20.4296 94.3655 21.0247C93.9665 22.8098 93.9665 24.1982 93.767 25.785C93.5675 24.5949 93.368 23.8015 93.368 22.6115C92.969 24.5949 93.1685 27.3718 91.5725 31.7354C91.772 29.752 91.5725 27.9668 91.5725 26.1817C91.5725 24.1982 91.5725 21.8181 91.373 19.4379C90.7744 14.6776 89.1784 13.6858 87.7819 13.6858C86.7844 13.8842 85.3878 14.4792 84.5898 14.2809Z" fill="#301508"/>
</g>
<defs>
<clipPath id="clip0_133_8914">
<rect width="161" height="120" fill="white"/>
</clipPath>
</defs>
</svg>
