<svg width="102" height="116" viewBox="0 0 102 116" fill="none" xmlns="http://www.w3.org/2000/svg">
<g clip-path="url(#clip0_133_8979)">
<path fill-rule="evenodd" clip-rule="evenodd" d="M51.9581 81.2432H27.4696L25.5531 87.2138C25.3402 94.677 25.979 97.8755 27.4696 105.126H51.7452V81.2432H51.9581Z" fill="#EAAF87"/>
<path fill-rule="evenodd" clip-rule="evenodd" d="M38.7557 37.3164C31.0897 39.8752 29.8121 39.662 23.6367 44.7796L21.2943 47.5517C11.7119 46.6988 5.96239 54.162 6.60122 65.8899C-2.55536 84.4414 0.212909 85.5076 1.70351 99.3679C2.1294 104.059 4.25884 105.978 4.47178 108.324L20.0167 93.8238C25.3403 91.4782 27.2568 89.9855 27.8956 84.0149L51.1064 89.9855V37.5296L38.7557 37.3164Z" fill="#EAAF87"/>
<path fill-rule="evenodd" clip-rule="evenodd" d="M38.7557 37.3164C31.0897 39.8752 29.8121 39.662 23.6367 44.7796L21.2943 47.5517C11.7119 46.6988 5.96239 54.162 6.60122 65.8899C-2.55536 84.4414 0.212909 85.5076 1.70351 99.3679C2.1294 104.059 3.62001 105.338 4.68473 108.324L5.96239 107.044C4.89767 104.912 4.25884 101.5 2.98118 96.5958C-3.463e-05 82.9488 2.98118 82.9488 7.02711 67.5958C7.87888 64.1841 8.30477 60.3458 10.0083 56.7208C11.9248 52.8826 14.906 49.8973 19.1649 49.8973C20.6555 49.8973 21.9332 50.9635 22.7849 53.0958C23.6367 51.1767 23.2108 49.6841 22.1461 48.4046C28.5344 40.3017 34.0709 40.5149 39.8204 38.5958L50.8935 41.3679V37.5296L38.7557 37.3164Z" fill="#E5A278"/>
<path fill-rule="evenodd" clip-rule="evenodd" d="M39.8205 36.2501L39.1816 34.9707C39.1816 40.7281 39.3946 46.4854 39.8205 49.4707C40.8852 54.8016 43.6535 58.0001 50.8935 62.6913V42.4339L39.8205 36.2501Z" fill="#E5A278"/>
<path fill-rule="evenodd" clip-rule="evenodd" d="M51.1065 80.177C47.6994 86.574 39.8205 85.7211 34.4969 83.802C29.3863 82.0961 27.0439 79.5373 25.7663 73.9932C25.3404 83.1623 27.8957 85.9343 33.6452 87.8535C40.2464 89.9858 50.0418 89.9858 51.1065 80.177Z" fill="#E5A278"/>
<path fill-rule="evenodd" clip-rule="evenodd" d="M26.8309 81.6689C25.3403 89.3454 24.2756 89.9851 17.4614 93.8234L22.3591 95.1028C26.618 91.9042 28.3215 89.3454 28.5345 84.0145L26.8309 81.6689Z" fill="#E5A278"/>
<path fill-rule="evenodd" clip-rule="evenodd" d="M35.7746 54.1621C33.6451 59.9195 28.5345 68.4489 21.9332 71.2209C15.5449 74.2062 6.60127 71.0077 7.45305 58.6401C4.04595 72.0739 11.0731 80.6033 25.7662 74.8459C26.8309 71.6474 33.4322 63.7577 35.7746 54.1621Z" fill="#E5A278"/>
<path fill-rule="evenodd" clip-rule="evenodd" d="M44.2922 96.5957C42.3757 94.2501 41.9499 93.1839 40.8851 92.331C40.2463 91.6913 39.6075 91.2648 38.1169 90.4119C36.6263 89.5589 35.3486 88.9192 34.4968 89.3457C32.7933 89.9854 32.7933 92.1178 32.7933 93.6104C30.8768 93.1839 29.5991 92.7575 28.9603 93.3972C28.3215 94.0369 28.1085 95.5295 27.8956 97.2354C27.6826 99.1545 27.4697 99.1545 28.1085 101.074C27.6826 103.419 27.0438 104.059 28.7473 105.552C28.5344 106.831 29.5991 107.684 31.0897 108.324C32.7933 109.177 36.4133 110.669 38.5428 111.522C41.524 112.802 42.8016 113.228 44.0793 113.441C45.144 113.655 46.2087 113.441 48.3382 113.228C49.6158 113.015 51.3194 113.228 53.0229 113.441C58.5595 114.081 63.883 114.721 69.4196 114.934C87.0939 115.787 93.6952 115.147 95.1858 95.956C86.4551 93.6104 82.835 94.4634 78.3632 94.6766C74.7432 94.8898 71.9749 97.4487 67.716 98.9413C59.8371 101.5 52.3841 102.78 47.2734 100.434C45.5699 99.581 45.3569 98.3016 44.2922 96.5957Z" fill="#E5A278"/>
<path fill-rule="evenodd" clip-rule="evenodd" d="M51.1064 81.2422H74.5302L76.4467 87.2128C76.6597 94.676 76.0209 97.8745 74.5302 105.125H51.1064V81.2422Z" fill="#E5A278"/>
<path fill-rule="evenodd" clip-rule="evenodd" d="M63.4572 37.3164C71.1231 39.8752 72.4008 39.662 78.5762 44.7796L80.9185 47.3385C90.501 46.4855 96.2505 53.9488 95.6116 65.6767C104.768 84.2282 102 85.2943 100.509 99.1546C100.083 103.846 101.148 105.125 97.5281 108.111C94.7599 110.243 91.1398 112.375 88.1586 113.441C80.4926 116 68.7807 116.213 59.4112 115.361C56.0041 115.147 54.9394 115.574 53.0229 115.574C50.4676 115.574 47.0605 113.868 43.4405 112.162C40.2463 110.669 36.8392 108.75 34.4968 107.044L35.7745 102.353L41.524 98.5149C64.096 107.258 64.9478 96.8091 82.1962 93.6105C76.8726 91.2649 74.9561 89.7723 74.3173 83.8017L51.1064 89.9855V37.5296L63.4572 37.3164Z" fill="#E5A278"/>
<path fill-rule="evenodd" clip-rule="evenodd" d="M63.4572 37.3164C71.1231 39.8752 72.4008 39.662 78.5762 44.7796L80.9185 47.3385C90.501 46.4855 96.2505 53.9488 95.6116 65.6767C104.768 84.2282 102 85.2943 100.509 99.1546C100.083 103.846 101.148 105.125 97.5281 108.111C94.7599 110.243 91.1398 112.375 88.1586 113.441C80.4926 116 68.7807 116.213 59.4112 115.361C56.0041 115.147 54.9394 115.574 53.0229 115.574C50.4676 115.574 47.0605 113.868 43.4405 112.162C40.2463 110.669 36.8392 108.75 34.4968 107.044L34.7098 106.191C38.9686 108.537 43.8663 110.669 48.977 112.375C50.6805 113.015 52.1711 114.294 54.0876 114.294C56.0041 114.508 57.9206 113.228 59.8371 113.015C62.8183 112.802 64.9478 113.441 68.7807 113.015C79.6409 112.375 94.121 107.897 94.7599 97.662C95.6116 108.111 90.9269 108.111 82.1962 113.441C96.4634 109.816 96.0375 109.603 99.2317 95.9561C102.213 82.3091 99.2317 82.309 95.1858 66.9561C94.334 63.5443 93.9081 59.7061 92.2045 56.0811C90.288 52.2429 87.3068 49.2576 83.048 49.2576C81.5574 49.2576 80.2797 50.3238 79.4279 52.4561C78.5761 50.537 79.002 49.0443 80.0668 47.7649C73.6784 39.662 68.1419 39.8752 62.3924 37.9561L51.1064 41.3679V37.5296L63.4572 37.3164Z" fill="#D9966C"/>
<path fill-rule="evenodd" clip-rule="evenodd" d="M95.3987 96.1691C91.5657 95.3162 83.6868 95.3162 81.7703 95.7427C76.6596 97.2353 74.5302 98.5147 70.2713 101.5C68.1419 102.993 69.8454 106.404 66.6513 109.39C63.883 111.949 53.2358 115.36 49.4029 113.868L35.5615 102.779L40.8851 100.86C63.4571 109.603 60.6889 97.2353 77.9373 93.8235C84.9644 92.5441 91.7786 94.25 95.3987 96.1691Z" fill="#D9966C"/>
<path fill-rule="evenodd" clip-rule="evenodd" d="M62.1795 36.2501L62.8183 34.9707C62.8183 40.7281 62.6054 46.4854 62.1795 49.4707C61.1148 54.8016 58.3465 58.0001 51.1064 62.6913V42.4339L62.1795 36.2501Z" fill="#D9966C"/>
<path fill-rule="evenodd" clip-rule="evenodd" d="M63.8829 25.5879C64.5218 24.735 64.7347 24.9482 65.1606 25.1614C66.0124 25.3747 65.5865 26.4408 65.5865 27.507C65.5865 28.1467 65.7994 28.7864 65.7994 30.0658C65.7994 31.985 64.7347 33.0511 63.67 34.757C63.4571 34.9702 62.8182 35.3967 62.3923 34.9702L63.2441 26.6541L63.8829 25.5879Z" fill="#E5A278"/>
<path fill-rule="evenodd" clip-rule="evenodd" d="M37.904 25.8018C37.2652 24.9488 37.0523 25.1621 36.6264 25.3753C35.7746 25.5885 36.2005 26.6547 36.2005 27.7209C36.2005 28.3606 35.9875 29.0003 35.9875 30.2797C35.9875 32.1988 37.0523 33.265 38.117 34.9709C38.3299 35.1841 38.9688 35.6106 39.3946 35.1841L38.5429 26.8679L37.904 25.8018Z" fill="#EAAF87"/>
<path fill-rule="evenodd" clip-rule="evenodd" d="M51.3195 49.8968C51.1065 49.8968 51.1065 49.8968 51.3195 49.8968C49.19 49.8968 48.1253 49.8968 47.0606 49.4703C45.9959 49.0439 45.57 47.9777 44.0794 46.485C42.8017 45.2056 40.6723 44.1394 40.2464 42.86C39.6075 41.1541 39.8205 39.235 39.3946 36.463C39.1817 34.3306 38.1169 32.4115 38.1169 30.4924C38.1169 28.36 38.5428 26.0144 38.5428 23.6689C38.5428 18.9777 38.5428 15.7792 41.3111 13.4336C42.1629 12.7939 43.0146 12.1542 43.8664 11.7277H44.0794C44.0794 11.7277 44.0794 11.7277 44.2923 11.7277C44.2923 11.7277 44.2923 11.7277 44.5053 11.7277C44.5053 11.7277 44.5053 11.7277 44.7182 11.7277H44.9311C44.9311 11.7277 44.9311 11.7277 45.1441 11.7277H45.357C45.357 11.7277 45.57 11.7277 45.57 11.5144C50.6806 9.80856 57.2819 10.4483 61.1149 13.86C64.0961 16.2056 63.8831 19.1909 63.8831 24.0953C63.8831 26.6542 64.309 28.7865 64.309 30.9189C64.309 33.0512 63.2443 34.9703 63.0314 36.8894C62.6055 39.6615 63.0314 41.5806 62.1796 43.2865C61.7537 44.5659 59.4113 45.8453 58.3466 46.9115C56.856 48.4041 56.4301 49.4703 55.3654 49.8968C54.0877 49.6836 53.023 49.8968 51.3195 49.8968Z" fill="#EAAF87"/>
<path fill-rule="evenodd" clip-rule="evenodd" d="M51.3194 49.8975C51.1064 49.8975 51.1064 49.8975 51.3194 49.8975L51.1064 10.0225C54.7265 10.0225 58.3465 11.0886 60.9019 13.221C63.8831 15.5666 63.6701 18.5519 63.6701 23.4563C63.6701 26.0151 64.096 28.1475 64.096 30.2798C64.096 32.4122 63.0313 34.3313 62.8183 36.2504C62.3925 39.0225 62.8183 40.9416 61.9666 42.6475C61.5407 43.9269 59.1983 45.2063 58.1336 46.2725C56.643 47.7651 56.2171 48.8313 55.1524 49.2578C54.0877 49.6842 53.0229 49.8975 51.3194 49.8975Z" fill="#E5A278"/>
<path fill-rule="evenodd" clip-rule="evenodd" d="M47.9122 23.8819C47.9122 23.6687 47.6993 23.4554 47.2734 23.2422V23.4554C46.8475 23.029 46.4216 23.029 45.9958 22.8157C46.4216 23.029 46.6346 23.2422 46.6346 23.4554C46.2087 23.029 45.9958 22.8157 45.3569 22.6025C44.0793 21.9628 42.8016 21.7495 41.311 21.9628C40.4592 21.9628 40.2463 22.176 39.8204 22.176C40.0333 22.176 40.2463 22.176 40.2463 22.176C39.3945 22.3892 38.7557 23.029 38.5427 23.8819C39.1816 23.2422 39.8204 22.8157 40.8851 23.029C41.7369 23.029 42.1628 23.4554 43.4404 23.8819L43.6534 23.4554C44.2922 23.6687 44.931 24.0951 45.5699 24.5216C46.6346 24.9481 46.6346 24.7348 47.0605 24.9481C47.4864 25.1613 47.6993 25.1613 47.6993 25.1613C48.1252 24.9481 48.3381 24.5216 47.9122 23.8819Z" fill="#0D0501"/>
<path fill-rule="evenodd" clip-rule="evenodd" d="M53.4488 23.8819C53.4488 23.6687 53.6617 23.4554 54.0876 23.2422V23.4554C54.5135 23.029 54.9394 23.029 55.3653 22.8157C54.9394 23.029 54.7264 23.2422 54.7264 23.4554C55.1523 23.029 55.3653 22.8157 56.0041 22.6025C57.2818 21.9628 58.3465 21.7495 59.8371 21.9628C60.6889 21.9628 60.9018 22.176 61.3277 22.176C61.1148 22.176 60.9018 22.176 60.9018 22.176C61.7536 22.3892 62.3924 23.029 62.6054 23.8819C61.9665 23.2422 61.3277 22.8157 60.263 23.029C59.4112 23.029 58.9853 23.4554 57.7077 23.8819L58.1335 23.6687C57.4947 23.8819 56.8559 24.3084 56.217 24.7348C55.1523 25.1613 55.1523 24.9481 54.7264 25.1613C54.3006 25.3745 54.0876 25.3745 54.0876 25.3745C53.2358 24.9481 53.0229 24.5216 53.4488 23.8819Z" fill="#0D0501"/>
<path fill-rule="evenodd" clip-rule="evenodd" d="M55.3653 15.3529C52.3841 15.1397 50.6805 14.0735 47.6993 15.5662C45.3569 15.1397 42.5887 14.7132 41.7369 15.7794C41.0981 16.4191 40.6722 17.4853 41.311 19.6176L40.2463 18.5515C39.6075 21.1103 39.3945 21.9632 39.6075 24.5221L38.3298 23.4559C38.5428 27.9338 38.9686 29 39.1816 33.0515C37.2651 29.6397 38.1169 25.8015 35.9874 24.3088C35.5615 19.1912 35.5615 18.7647 36.6263 13.6471L35.3486 14.2868C35.7745 13.4338 35.9874 12.7941 36.4133 12.1544C35.7745 12.1544 35.1357 12.5809 34.4968 13.4338C35.7745 10.6618 38.3298 9.59559 40.0334 7.03676C39.1816 6.82353 38.3298 7.46323 37.691 7.88971C38.9686 5.11765 40.6722 4.69118 42.8016 3.625C42.1628 2.55882 42.1628 2.77206 41.9499 1.49265C43.6534 3.19853 46.6346 2.77206 48.3382 2.55882C47.4864 1.91912 46.8476 1.49265 47.0605 0C47.6993 1.27941 48.3382 1.27941 49.4029 1.70588L48.764 0.639706C50.8935 1.91912 52.3841 2.55882 54.7265 3.19853C56.643 3.83824 61.7536 6.82353 62.1795 4.26471C62.6054 5.33088 62.3924 5.97059 61.5407 6.39706C62.6054 6.39706 63.0313 6.39706 64.096 6.18382C63.6701 6.39706 63.2442 6.61029 62.8183 6.82353C66.2254 8.74265 65.5866 10.0221 66.2254 14.0735C65.7995 12.3676 65.5866 11.9412 64.7348 10.4485C65.1607 12.1544 66.0125 14.2868 66.2254 15.5662C66.4384 17.4853 65.7995 18.9779 65.5866 20.4706C65.5866 21.1103 66.0125 21.9632 65.7995 22.6029C65.3736 24.5221 65.3737 26.0147 65.1607 27.7206C64.9478 26.4412 64.7348 25.5882 64.7348 24.3088C64.3089 26.4412 64.5219 29.4265 62.8183 34.1176C63.0313 31.9853 62.8183 30.0662 62.8183 28.1471C62.8183 26.0147 62.8183 23.4559 62.6054 20.8971C61.9666 15.7794 60.263 14.7132 58.7724 14.7132C57.7077 14.9265 56.2171 15.5662 55.3653 15.3529Z" fill="#301508"/>
<path fill-rule="evenodd" clip-rule="evenodd" d="M51.1064 80.176C54.7265 86.9995 62.8183 84.6539 68.3549 82.3084C73.0396 80.3892 75.1691 79.3231 76.6597 73.9922C76.8726 83.1613 74.1044 84.8672 68.3549 86.5731C61.5407 88.7054 51.9582 89.9848 51.1064 80.176Z" fill="#D9966C"/>
<path fill-rule="evenodd" clip-rule="evenodd" d="M75.382 81.6689C76.8726 89.3454 77.2985 90.6248 84.1127 94.4631L78.3632 95.5292C74.7432 92.9704 73.8914 89.1322 73.6785 84.0145L75.382 81.6689Z" fill="#D9966C"/>
<path fill-rule="evenodd" clip-rule="evenodd" d="M66.4385 54.1621C68.5679 59.9195 73.6786 68.4489 80.2798 71.2209C86.6681 74.2062 95.6117 71.0077 94.76 58.6401C98.1671 72.0739 91.1399 80.6033 76.4468 74.8459C75.1692 71.6474 68.5679 63.7577 66.4385 54.1621Z" fill="#D9966C"/>
<path fill-rule="evenodd" clip-rule="evenodd" d="M51.5323 97.2353C53.6618 94.8897 54.3006 93.8236 55.1524 93.1839C55.7912 92.5442 56.643 92.3309 57.9206 91.478C59.6242 90.625 60.6889 90.1986 61.7536 90.625C63.2442 91.478 63.2442 93.3971 63.2442 94.8897C65.3737 94.4633 66.4384 94.25 67.0772 94.8897C67.5031 95.5294 67.7161 97.0221 67.929 98.728C68.1419 100.647 68.1419 100.647 67.5031 102.566C67.929 104.912 68.3549 105.552 66.4384 107.044C66.4384 108.324 65.5866 108.963 64.096 109.603C62.3925 110.243 58.5595 111.735 56.43 112.375C53.4488 113.441 51.9582 113.868 50.6806 113.868C49.6158 113.868 48.5511 113.654 46.4217 113.228C45.144 113.015 43.4405 113.015 41.7369 113.015C36.2004 113.228 30.8768 113.441 25.3403 113.441C15.119 113.228 13.6284 111.522 8.51772 110.882C5.74946 110.456 5.32357 110.882 4.68474 110.243C4.04591 109.816 3.62002 108.963 3.19413 107.044C2.76825 105.125 2.34236 103.206 1.91647 101.287C1.0647 98.3015 1.0647 96.8089 1.0647 92.5442C9.58244 91.9044 12.9895 89.9853 17.4614 90.4118C21.0814 90.8383 24.7014 92.1177 28.7474 93.8236C36.4133 97.0221 43.4405 102.353 48.5511 100.434C50.2547 100.221 50.2547 98.9412 51.5323 97.2353Z" fill="#EAAF87"/>
<path fill-rule="evenodd" clip-rule="evenodd" d="M51.5324 97.235C53.6619 94.8894 54.3007 93.8232 55.1525 93.1835C51.3195 98.0879 52.1712 100.434 48.9771 101.926C37.4781 106.617 28.3216 91.4776 9.58252 91.9041C12.5637 91.2644 14.9061 90.6247 17.4614 91.0512C21.0815 91.4776 24.7015 92.7571 28.7474 94.4629C36.4134 97.6615 43.4406 102.992 48.5512 101.073C50.2548 100.22 50.2548 98.9409 51.5324 97.235Z" fill="#E5A278"/>
<path fill-rule="evenodd" clip-rule="evenodd" d="M63.4571 94.4631C63.4571 94.6763 63.4571 95.1028 63.4571 95.316C65.5866 94.8895 66.6513 94.6763 67.2901 95.316C67.716 95.9557 67.9289 97.4484 68.1419 99.1542C68.3548 101.073 68.3548 101.073 67.716 102.992C68.1419 105.338 68.5678 105.978 66.6513 107.47C66.6513 108.75 65.7995 109.39 64.3089 110.029C62.6053 110.669 58.7724 112.162 56.6429 112.801C53.6617 113.867 52.1711 114.294 50.8934 114.294C49.8287 114.294 48.764 114.081 46.6346 113.654C45.3569 113.441 43.6534 113.441 41.9498 113.441C36.4133 113.654 31.0897 113.867 25.5532 113.867C15.3319 113.654 13.8413 111.948 8.73061 111.309C5.96235 110.882 5.53646 111.309 4.89763 110.669C4.2588 110.242 3.83291 109.39 3.40702 107.47C2.98114 105.551 2.55525 103.632 2.12936 101.713C1.27759 98.7278 1.27759 97.2351 1.27759 92.9704C1.91642 92.9704 1.70348 92.7572 2.12936 92.5439C2.98114 97.4484 3.83291 105.978 6.60118 108.11C7.6659 108.963 13.4154 110.029 15.5448 110.456C8.30473 107.257 4.68469 103.419 6.60118 95.316C7.24001 97.4484 7.02706 99.5807 7.87884 101.073C10.6471 105.978 14.906 107.897 20.2296 108.963C27.0438 110.242 33.2191 110.456 39.8204 110.456C45.3569 110.456 47.6993 111.948 50.2546 111.948C51.1064 111.948 55.5782 111.095 59.6241 110.029C62.1795 109.39 66.4383 108.11 65.3736 107.897H64.096C64.7348 107.684 66.2254 107.044 66.8642 105.978C67.2901 105.338 67.0772 104.059 66.4383 103.845C66.2254 103.632 65.1607 104.698 63.2442 105.125C65.1607 103.845 66.6513 102.566 66.8642 101.287C67.0772 100.434 66.8642 98.941 66.6513 97.0219C66.2254 95.1028 65.5866 95.7425 63.883 95.7425C61.5406 95.7425 59.6241 95.7425 57.9206 97.2351C60.05 94.6763 60.4759 95.1028 63.4571 94.4631Z" fill="#E5A278"/>
<path fill-rule="evenodd" clip-rule="evenodd" d="M44.0793 96.3825C43.4405 94.6766 42.1628 93.6104 41.311 92.7575C40.4593 91.6913 39.1816 91.2648 38.3298 90.6251C36.8392 89.7722 35.7745 89.3457 34.9227 89.3457C34.071 89.3457 33.6451 90.1986 33.4321 90.1986C32.5804 91.2648 32.7933 93.3972 32.7933 93.6104C30.8768 93.1839 29.5991 92.7575 28.9603 93.3972C28.7474 93.6104 28.7474 93.8236 28.5344 94.2501L41.0981 100.007L29.5991 94.2501C30.025 93.1839 30.6639 94.0369 31.9415 94.2501C34.2839 94.4633 36.2004 94.4633 37.9039 96.1692C36.4133 93.6104 35.7745 93.6104 33.858 92.9707C33.6451 92.9707 33.2192 91.4781 34.2839 90.1986C34.2839 90.1986 35.3486 89.5589 37.4781 90.8383C40.0334 92.7575 41.311 92.5442 44.0793 96.3825Z" fill="#D9966C"/>
</g>
<defs>
<clipPath id="clip0_133_8979">
<rect width="102" height="116" fill="white"/>
</clipPath>
</defs>
</svg>
