<svg width="149" height="142" viewBox="0 0 149 142" fill="none" xmlns="http://www.w3.org/2000/svg">
<path d="M72.7327 74.6198C89.7885 74.6198 103.615 60.7933 103.615 43.7376C103.615 26.6819 89.7885 12.8555 72.7327 12.8555C55.677 12.8555 41.8506 26.6819 41.8506 43.7376C41.8506 60.7933 55.677 74.6198 72.7327 74.6198Z" fill="#FFB8B8"/>
<path d="M117.915 141.684H49.4448L51.6818 91.345L52.2148 90.784L59.8988 82.667H84.3508L93.4128 91.445L94.1448 92.155L113.441 110.649L117.915 141.684Z" fill="#1D4ED8"/>
<path d="M61.2196 141.684H9.41769C9.29007 130.321 9.21899 123.518 9.21899 123.518L12.2159 121.692C12.2196 121.688 12.2246 121.686 12.2301 121.685H12.2373L45.2473 101.643L52.1787 90.3867L52.2144 90.7844L54.2528 114.512C54.2528 114.512 57.619 125.392 61.2196 141.684Z" fill="#2F2E41"/>
<path d="M148.283 141.684H93.413C94.2439 108.546 89.7698 90.3867 92.0711 90.3867L93.413 91.4449L109.584 104.214L130.898 112.034H130.912L145.606 117.424L148.184 118.369V119.583C148.191 122.495 148.205 130.456 148.283 141.684Z" fill="#2F2E41"/>
<path d="M43.5165 53.3996C43.5165 53.3996 46.1404 48.7917 45.5304 33.3982C44.9204 18.0048 68.3609 26.7111 87.9479 25.2427C107.535 23.7742 103.389 50.9424 103.389 50.9424C103.389 50.9424 104.802 49.3274 107.827 36.2152C110.853 23.1031 103.983 10.0362 103.983 10.0362C101.96 -3.74218 91.0571 0.673788 91.0571 0.673788C96.3079 2.71788 95.2995 7.08861 95.2995 7.08861C90.8548 -0.704016 79.9517 3.71197 79.9517 3.71197C65.4101 -5.41324 50.6723 6.60354 50.6723 6.60354C33.1053 10.5904 43.4077 24.5607 43.4077 24.5607C25.7411 33.4887 43.5165 53.3996 43.5165 53.3996Z" fill="#2F2E41"/>
<path d="M16.3353 141.685H-4.94954C-4.78355 139.062 -4.7788 136.432 -4.93532 133.809C-6.2066 128.745 11.6763 121.899 12.2159 121.693C12.2196 121.689 12.2247 121.686 12.2302 121.686H12.2374L15.6463 123.518L16.3353 141.685Z" fill="#2F2E41"/>
<path d="M152.125 141.684H129.768L126.977 114.129L130.109 111.842C130.109 111.842 130.393 111.906 130.898 112.034H130.912C133.419 112.651 141.174 114.697 145.606 117.424C146.592 117.977 147.466 118.709 148.184 119.583C148.623 120.11 148.842 120.787 148.794 121.472C148.681 122.502 149.988 130.087 152.125 141.684Z" fill="#2F2E41"/>
</svg>
