<svg width="91" height="119" viewBox="0 0 91 119" fill="none" xmlns="http://www.w3.org/2000/svg">
<g clip-path="url(#clip0_133_8949)">
<path d="M51.7223 105.434H29.5557V119H51.7223V105.434Z" fill="#2D3E50"/>
<path fill-rule="evenodd" clip-rule="evenodd" d="M39.6667 37.793H30.3334L22.1667 63.1822L9.13892 91.8663L32.4722 101.169H45.8889L46.2778 82.3695L39.6667 37.793Z" fill="#EAAF87"/>
<path fill-rule="evenodd" clip-rule="evenodd" d="M34.2223 40.1192C29.1667 54.2674 24.6945 61.2446 32.0834 74.0361C34.4167 78.1061 35.5834 77.1371 36.75 87.2153C37.5278 94.3863 41.4167 100.588 42.3889 107.372C42.9723 113.186 43.1667 114.736 43.3612 118.806H80.5C79.7223 112.023 76.8056 109.697 75.0556 106.596C66.1112 90.51 68.0556 87.2152 67.2778 68.997L65.7223 44.5768L42.1945 35.0801L34.2223 40.1192Z" fill="#E5A278"/>
<path fill-rule="evenodd" clip-rule="evenodd" d="M42.7778 113.767C43.1667 115.899 43.3612 116.674 43.5556 118.806H80.6945C79.9167 112.022 77.0001 109.697 75.2501 106.596C63.7778 109.309 54.0556 115.899 42.7778 113.767Z" fill="#1D2936"/>
<path fill-rule="evenodd" clip-rule="evenodd" d="M52.6945 110.666C51.5279 111.441 49.5834 112.604 48.6112 113.379C47.2501 114.542 46.6668 115.123 45.889 115.705C44.9168 116.286 43.7501 116.48 41.0279 117.062C39.2779 117.449 35.9723 118.224 34.4168 118.418C33.0556 118.612 32.0834 118.418 31.5001 117.643C29.5556 117.449 29.5556 116.674 28.7779 114.93C27.6112 113.961 27.6112 113.767 26.8334 112.41C26.2501 111.247 25.6667 109.891 25.6667 109.309C25.8612 108.534 26.8334 108.146 28.389 107.565C27.8056 106.402 26.8334 105.045 27.6112 103.882C28.0001 103.107 29.1667 102.913 30.7223 102.72C32.0834 102.526 32.6668 102.526 33.4445 102.72C34.6112 102.913 35.389 103.301 37.9167 104.076C39.4723 104.658 40.2501 105.627 41.4167 105.433C42.9723 105.239 45.889 102.913 47.2501 101.944L52.6945 110.666Z" fill="#E5A278"/>
<path fill-rule="evenodd" clip-rule="evenodd" d="M28.1944 106.983C28.3888 107.177 28.3888 107.371 28.5832 107.565C27.0277 108.146 26.0555 108.534 25.861 109.309C25.6666 109.89 26.4444 111.247 27.0277 112.41C27.8055 113.767 27.8055 113.96 28.9721 114.93C29.7499 116.674 29.7499 117.449 31.6944 117.643C32.2777 118.418 33.2499 118.612 34.611 118.418C36.1666 118.224 39.4721 117.449 41.2221 117.061C43.9444 116.48 45.111 116.092 46.0832 115.705C46.861 115.317 47.6388 114.542 48.8055 113.379C49.7777 112.604 50.7499 111.829 52.111 111.247L52.3055 108.146C48.2221 110.666 34.611 101.75 34.4166 103.882C34.0277 107.565 43.5555 110.86 44.1388 113.767C44.5277 115.123 40.4444 115.899 37.7221 116.674C35.5832 117.255 31.8888 118.224 32.6666 117.837L33.4444 117.255C32.861 117.449 31.4999 117.643 30.5277 117.061C29.9444 116.674 29.5555 115.705 29.7499 115.317C29.7499 115.123 31.111 115.511 32.6666 114.93C30.7221 114.93 29.1666 114.542 28.3888 113.96C27.8055 113.379 27.4166 112.41 26.6388 110.86C26.0555 109.309 26.8332 109.503 27.9999 108.728C29.7499 107.759 31.111 106.789 33.0555 107.177C30.7221 105.627 30.5277 106.208 28.1944 106.983Z" fill="#D9966C"/>
<path fill-rule="evenodd" clip-rule="evenodd" d="M44.3334 27.9092C44.7223 29.4597 45.1112 31.5916 45.6945 32.7545C46.0834 33.5297 46.4723 33.7235 47.4445 33.9173C52.1112 34.6926 60.2778 35.274 62.6112 36.8245C73.1112 35.0802 77.5834 39.344 80.6945 49.8098C85.3612 53.8799 87.6945 56.787 89.0556 59.888C91.5834 66.2838 89.8334 74.6176 90.6112 81.7887C91.0001 85.2773 91.1945 86.2463 90.0278 87.2154C88.8612 88.1844 88.0834 88.9597 87.5001 89.5411C84.0001 93.4173 83.4167 94.774 80.6945 96.9059C73.5001 102.72 64.7501 105.24 51.9167 111.054L45.1112 102.139C51.5278 100.007 55.0278 97.4873 57.1667 94.9678C60.6667 90.8978 61.4445 84.6958 69.0278 78.1062C62.6112 71.5167 61.2501 68.0281 62.4167 58.9189C50.1667 51.1665 49.5834 46.9027 41.0278 35.0802L44.3334 27.9092Z" fill="#E5A278"/>
<path fill-rule="evenodd" clip-rule="evenodd" d="M44.3334 27.9092C44.7223 29.4597 45.1112 31.5916 45.6945 32.7545C46.0834 33.5297 46.4723 33.7235 47.4445 33.9173C52.1112 34.6926 60.2779 35.274 62.6112 36.8245C73.1112 35.0802 77.5834 39.344 80.6945 49.8098C85.3612 53.8799 87.6945 56.787 89.0556 59.888C91.5834 66.2838 89.8334 74.6176 90.6112 81.7887C91.0001 85.2773 91.1945 86.2463 90.0279 87.2154C88.8612 88.1844 88.0834 88.9597 87.5001 89.5411C84.0001 93.4173 83.4167 94.774 80.6945 96.9059C73.5001 102.72 64.7501 105.24 51.9168 111.054L50.7501 109.504C51.7223 109.116 53.0834 98.844 54.2501 99.6193C55.4167 100.588 57.3612 106.209 58.7223 105.627C60.8612 104.465 62.4167 103.883 64.7501 102.914C70.9723 100.007 81.2779 92.6421 86.139 87.2154C87.889 86.6339 89.0556 86.4401 89.0556 84.3082C89.0556 82.7577 88.4723 81.401 88.4723 78.6877C88.2779 73.8424 88.8612 69.1909 88.4723 64.5395C88.0834 58.9189 86.139 57.1746 79.7223 50.7789C78.7501 52.1356 78.9445 52.1356 77.389 52.9108C78.5556 50.1974 78.1667 49.0346 77.7779 46.9027C77.0001 43.0264 73.889 38.7626 68.2501 37.5997C65.5279 37.0183 61.0556 37.0183 64.1667 41.8636C61.639 40.3131 61.0556 38.7626 61.4445 37.2121C58.7223 36.8245 51.3334 35.6616 47.4445 35.0802C44.5279 34.6926 44.7223 33.7235 43.9445 31.9792L41.4167 33.3359L44.3334 27.9092ZM46.2779 103.689C49.9723 101.751 53.0834 100.588 56.7779 97.875C58.5279 97.0997 63.7779 96.5183 62.0279 93.4173C61.639 93.2235 60.8612 93.2235 59.889 93.2235C66.1112 85.8587 70.5834 76.5558 78.5556 74.8115C76.6112 74.4238 74.8612 74.0362 70.0001 76.3619C66.6945 71.7105 63.7779 64.5395 64.9445 59.5004C69.4168 59.888 73.3056 59.3066 76.2223 54.8489C72.9168 57.1746 66.889 57.7561 63.0001 56.3994C58.3334 55.0427 56.1945 52.9108 52.889 49.0346C55.0279 54.0737 59.5001 57.5623 62.4167 58.9189C61.2501 68.0281 62.8056 71.5167 69.0279 78.1062C61.639 84.8896 60.6667 90.8978 57.1667 94.9678C55.0279 97.4873 51.5279 100.007 45.1112 102.139L46.2779 103.689Z" fill="#D9966C"/>
<path fill-rule="evenodd" clip-rule="evenodd" d="M29.1666 55.4302C29.5555 70.3536 34.8055 73.8422 44.3333 72.0979C49.3888 71.1289 59.6944 63.9579 60.2777 59.3064C55.4166 56.7868 53.8611 52.7168 53.4722 50.1973C56.3888 53.8797 57.75 55.4302 62.8055 56.3992L62.2222 62.9888C57.5555 71.3227 52.5 75.5865 42.3888 76.5556C32.2777 77.5246 26.8333 70.7412 29.1666 55.4302Z" fill="#D9966C"/>
<path fill-rule="evenodd" clip-rule="evenodd" d="M33.6389 70.9349C34.6112 73.0668 35.1945 74.8111 36.1667 76.7492C37.1389 79.0749 36.3612 78.8811 39.4723 78.6873C43.9445 78.4935 47.6389 78.2997 50.9445 79.4626C47.6389 79.4626 43.1667 79.8502 41.0278 80.2378C39.2778 80.6254 38.8889 80.6254 39.0834 82.7574C39.2778 84.8893 39.4723 85.6645 40.2501 86.0521C40.8334 86.4398 40.8334 86.6336 42.7778 86.8274C46.0834 87.215 50.9445 85.2769 55.6112 84.6955C53.8612 85.8583 46.2778 88.3779 42.0001 88.1841C40.0556 88.1841 37.9167 87.9903 37.5278 87.215C36.3612 85.0831 36.5556 82.9512 35.9723 80.8192C35.0001 77.9121 31.8889 74.0359 30.5278 69.9658L33.6389 70.9349Z" fill="#D9966C"/>
<path fill-rule="evenodd" clip-rule="evenodd" d="M55.8055 85.4707C55.0277 94.386 48.4166 93.417 37.3333 94.9675C47.4444 94.7736 59.111 95.3551 55.8055 85.4707Z" fill="#D9966C"/>
<path fill-rule="evenodd" clip-rule="evenodd" d="M35.0001 79.656C32.6667 81.2064 30.5279 81.9817 27.0279 81.4003C27.8056 82.9507 28.389 84.5012 29.1667 86.0517C29.9445 87.6022 29.3612 87.6022 31.5001 87.4084C33.639 87.2146 35.7779 87.4084 36.9445 87.2146L37.139 88.1836C35.389 88.1836 33.4445 88.3775 32.2779 88.7651C31.1112 88.9589 30.7223 89.1527 30.9167 90.7032C31.1112 92.2537 31.3056 92.6413 31.6945 93.0289C32.0834 93.2227 32.8612 93.2227 34.2223 93.4165C36.5556 93.6104 39.0834 93.6104 41.6112 93.8042C40.2501 93.998 35.9723 94.5794 32.8612 94.3856C31.5001 94.3856 29.9445 94.1918 29.7501 93.8042C28.9723 92.2537 29.5556 90.7032 28.9723 89.1527C28.5834 87.6022 27.2223 86.2455 26.2501 84.8889C24.5001 82.7569 23.9167 81.0126 22.1667 78.1055L27.4167 79.8498C30.9167 80.0436 31.6945 79.656 34.8056 79.2683L35.0001 79.656Z" fill="#E5A278"/>
<path fill-rule="evenodd" clip-rule="evenodd" d="M25.4722 35.0801C25.4722 37.0182 26.25 40.5068 24.1111 41.4758C20.4167 43.2201 17.6945 44.5768 14.3889 47.2902C4.66668 51.554 1.75001 57.9498 4.27779 69.5785C0.972232 77.1371 -0.972213 79.0752 0.583343 86.2462C0.972231 88.3781 1.75001 90.7039 2.33334 92.8358C3.30556 97.4872 4.86112 98.4563 6.61112 101.945C7.97223 104.658 9.1389 104.658 10.8889 105.24C14.3889 106.209 18.2778 106.596 22.1667 106.596C26.4445 106.596 30.9167 105.821 35 104.464C36.3611 105.24 36.5556 105.821 37.5278 106.403C39.6667 107.953 41.0278 108.534 42.5833 109.697C43.3611 110.279 43.9445 110.86 44.5278 111.442C45.5 112.798 45.8889 113.767 46.6667 114.155C47.25 114.349 49 114.543 48.8056 113.38L49.7778 114.93C50.9445 115.512 52.1111 114.93 52.6945 113.574C53.2778 114.349 54.25 114.155 54.6389 113.767C55.2222 113.38 55.8056 112.992 55.6111 111.829C56.3889 112.411 56.7778 112.023 57.1667 111.829C58.7222 111.248 57.5556 107.372 57.1667 106.015C56.5833 104.464 56 103.302 55.2222 102.139C54.0556 100.201 53.4722 98.0687 53.8611 97.0996C54.25 96.3244 56 96.712 57.3611 96.1306C59.1111 96.1306 61.0556 95.9368 61.8333 94.5801C62.4167 93.8048 62.0278 93.2234 61.6389 93.0296C60.8611 92.642 59.6945 92.8358 59.1111 92.8358C56.9722 92.2543 56.1945 92.4482 54.0556 92.642C52.3056 92.4482 51.5278 92.4482 50.75 92.642C49.7778 92.8358 48.8056 93.8048 46.8611 94.1925C46.2778 94.3863 44.3333 93.9986 42.3889 93.8048C40.0556 93.4172 37.7222 92.8358 35.3889 92.642C33.25 92.4482 31.1111 91.8667 28.7778 91.8667C25.2778 88.7657 24.1111 88.5719 19.6389 86.44C21 84.8895 22.3611 80.4319 23.5278 75.199C25.4722 66.4775 26.8333 55.6241 27.6111 51.7478L31.6945 37.7934L25.4722 35.0801Z" fill="#EAAF87"/>
<path fill-rule="evenodd" clip-rule="evenodd" d="M25.4722 35.0801C25.4722 37.0182 26.25 40.5068 24.1111 41.4758C20.4167 43.2201 17.6945 44.5768 14.3889 47.2902C4.66668 51.554 1.75001 57.9498 4.27779 69.5785C0.972232 77.1371 -0.972213 79.0752 0.583343 86.2462C0.972231 88.3781 1.75001 90.7039 2.33334 92.8358C3.30556 97.4872 4.86112 98.4563 6.61112 101.945C7.97223 104.658 9.1389 104.658 10.8889 105.24C14.3889 106.209 18.2778 106.596 22.1667 106.596C26.4445 106.596 30.9167 105.821 35 104.464C36.3611 105.24 36.5556 105.821 37.5278 106.403C39.6667 107.953 41.0278 108.534 42.5833 109.697C43.3611 110.279 43.9445 110.86 44.5278 111.442C45.5 112.798 45.8889 113.767 46.6667 114.155C47.25 114.349 49 114.543 48.8056 113.38L49.7778 114.93C50.9445 115.512 52.1111 114.93 52.6945 113.574C53.2778 114.349 54.25 114.155 54.6389 113.767C55.2222 113.38 55.8056 112.992 55.6111 111.829C56.3889 112.411 56.7778 112.023 57.1667 111.829C58.7222 111.248 57.5556 107.372 57.1667 106.015C56.5833 104.464 56 103.302 55.2222 102.139C54.0556 100.201 53.4722 98.0687 53.8611 97.0996C54.25 96.3244 56 96.712 57.3611 96.1306C59.1111 96.1306 61.0556 95.9368 61.8333 94.5801C62.2222 93.9986 62.2222 93.611 62.0278 93.2234C60.8611 94.9677 60.0833 94.9677 57.9445 95.3553C56.1945 94.9677 55.0278 95.5491 53.2778 95.7429C52.8889 97.6811 53.4722 99.813 54.25 101.557C54.8333 102.72 55.8056 104.077 56.1945 105.24C56.5833 106.209 56.7778 106.209 56 106.984C55.4167 107.565 54.6389 108.147 54.0556 106.984C53.2778 105.821 52.6945 104.852 51.9167 103.689C51.5278 103.108 50.75 101.363 50.5556 101.363C50.1667 101.363 50.5556 101.751 51.5278 103.495C52.1111 104.852 52.8889 106.209 53.4722 107.565C53.6667 108.147 54.0556 108.534 53.4722 109.116C53.0833 109.504 52.1111 110.085 51.5278 109.31L48.6111 105.821C47.0556 103.495 46.2778 102.914 48.0278 106.015C48.0278 106.015 49.5833 108.534 50.3611 109.891C50.9445 110.86 51.1389 111.442 50.3611 111.829C49.5833 112.217 49.3889 112.023 48.2222 110.666C47.25 109.504 46.2778 108.534 45.3056 107.372C44.1389 106.015 43.9445 106.209 44.9167 107.565C46.0833 108.922 46.4722 108.922 47.4445 110.473C48.2222 111.829 46.2778 112.217 44.7222 111.054L43.1667 109.504C42 108.728 40.6389 107.759 39.6667 106.984C38.3056 106.015 37.3333 105.24 36.9445 103.495C36.1667 100.394 35.1945 100.394 32.2778 100.782C29.9445 101.17 25.6667 101.751 22.9445 102.333C18.0833 103.302 13.4167 102.914 12.0556 103.108C8.75001 104.077 8.16668 103.302 6.80556 100.007C4.27779 94.9677 3.30556 90.7039 2.72223 85.2771C1.94445 77.9123 3.69445 71.1289 11.6667 67.2527C8.94445 67.8341 8.55556 67.8341 6.02779 67.8341C4.08334 58.725 5.83334 50.585 16.5278 48.0654C19.8333 44.383 23.1389 44.1892 26.8333 39.9254L30.5278 37.5996L25.4722 35.0801Z" fill="#E5A278"/>
<path fill-rule="evenodd" clip-rule="evenodd" d="M18.0834 52.1348C13.6112 63.7634 14.1945 72.8726 20.4167 75.3921C24.3056 76.9426 28.389 75.5859 32.2779 74.6168L33.0556 76.1673C29.5556 77.9116 27.0279 78.6869 23.3334 79.8497C23.9167 86.8269 25.2779 87.6022 27.2223 90.897L22.9445 88.7651C22.7501 85.8579 20.6112 80.2374 19.0556 79.0745C11.4723 73.6478 11.0834 63.5696 18.0834 52.1348Z" fill="#E5A278"/>
<path fill-rule="evenodd" clip-rule="evenodd" d="M25.6667 35.0798V39.925C26.2501 44.3827 29.3612 47.6775 29.9445 52.5228C35.1945 46.9022 36.7501 47.8713 41.2223 40.5065C42.5834 39.5374 43.7501 38.7622 44.7223 37.2117C45.3056 36.4364 45.5001 35.0798 45.889 33.7231L44.3334 26.9397L39.6668 23.0635L25.6667 35.0798Z" fill="#E5A278"/>
<path fill-rule="evenodd" clip-rule="evenodd" d="M33.4443 31.3978C33.0555 34.1112 33.6388 43.9955 29.9443 52.3294C35.1943 46.7089 36.7499 47.6779 41.2221 40.3131C42.5832 39.3441 43.7499 38.5688 44.7221 37.0183C45.3055 36.2431 45.4999 34.8864 45.8888 33.5297L44.3332 26.7463L39.6666 22.8701L33.4443 31.3978Z" fill="#D9966C"/>
<path fill-rule="evenodd" clip-rule="evenodd" d="M45.5 21.5133C46.0834 20.9319 46.2778 20.9319 46.4722 21.1257C47.0556 21.3195 46.8611 22.0947 46.8611 23.0638C46.8611 23.6452 47.0556 24.2267 47.0556 25.1957C47.0556 26.94 46.0834 27.7153 45.3056 29.0719C45.1111 29.2657 44.7222 29.6534 44.1389 29.2657L44.9167 22.2885L45.5 21.5133Z" fill="#E5A278"/>
<path fill-rule="evenodd" clip-rule="evenodd" d="M23.528 21.7067C22.9446 21.1252 22.7502 21.1252 22.5557 21.319C21.9724 21.5128 22.1669 22.2881 22.1669 23.2571C22.1669 23.8386 21.9724 24.42 21.9724 25.3891C21.9724 27.1334 22.9446 27.9086 23.7224 29.2653C23.9169 29.4591 24.3057 29.8467 24.8891 29.4591L24.1113 22.4819L23.528 21.7067Z" fill="#EAAF87"/>
<path fill-rule="evenodd" clip-rule="evenodd" d="M34.8056 41.8631C32.8612 41.8631 32.0834 41.8631 31.1112 41.4755C30.1389 41.0879 29.7501 40.1188 28.5834 38.956C27.6112 37.9869 25.6667 37.0178 25.2778 35.855C24.6945 34.3045 24.8889 32.754 24.6945 30.4283C24.5001 28.684 23.7223 27.1335 23.5278 25.3892C23.5278 23.4511 23.9167 21.7068 23.9167 19.5749C23.9167 15.5048 23.9167 12.9853 26.2501 11.0472C26.8334 10.4657 27.6112 10.0781 28.5834 9.69048H28.7778C28.7778 9.69048 28.7778 9.69048 28.9723 9.69048C28.9723 9.69048 28.9723 9.69048 29.1667 9.69048C29.1667 9.69048 29.1667 9.69048 29.3612 9.69048C29.3612 9.69048 29.3612 9.69048 29.5556 9.69048H29.7501H29.9445C34.2223 8.33381 39.6667 8.91524 42.9723 11.6286C45.5001 13.5667 45.3056 16.0862 45.3056 20.1563C45.3056 22.2882 45.6945 24.0325 45.6945 25.9706C45.6945 27.7149 44.9167 29.2654 44.5278 31.0097C44.1389 33.3354 44.5278 34.8859 43.9445 36.4364C43.5556 37.5993 41.6112 38.5683 40.6389 39.5374C39.4723 40.7003 39.0834 41.6693 38.1112 42.0569C37.3334 41.6693 36.3612 41.8631 34.8056 41.8631Z" fill="#EAAF87"/>
<path fill-rule="evenodd" clip-rule="evenodd" d="M34.8058 41.8633L34.6113 8.33398C37.7224 8.33398 40.8336 9.30304 42.9724 11.0473C45.5002 12.9854 45.3058 15.505 45.3058 19.575C45.3058 21.7069 45.6947 23.4512 45.6947 25.3894C45.6947 27.1337 44.9169 28.6841 44.528 30.4284C44.1391 32.7542 44.528 34.3047 43.9447 35.8552C43.5558 37.018 41.6113 37.9871 40.6391 38.9561C39.4724 40.119 39.0836 41.0881 38.1113 41.4757C37.3336 41.6695 36.3613 41.8633 34.8058 41.8633Z" fill="#E5A278"/>
<path fill-rule="evenodd" clip-rule="evenodd" d="M32.0833 19.9625C32.0833 19.7687 31.8889 19.5749 31.5 19.3811V19.5749C31.1111 19.1872 30.9167 19.1872 30.5278 18.9934C30.7222 19.1872 30.9167 19.3811 31.1111 19.5749C30.7222 19.3811 30.5278 18.9934 30.1389 18.7996C28.9722 18.2182 28 18.0244 26.8333 18.2182C26.25 18.2182 25.8611 18.412 25.6667 18.412C25.8611 18.412 26.0556 18.412 26.0556 18.412C25.2778 18.6058 24.8889 19.1872 24.5 19.7687C25.0833 19.1872 25.6667 18.9934 26.6389 18.9934C27.2222 18.9934 27.6111 19.3811 28.7778 19.7687L28.3889 19.5749C28.9722 19.7687 29.3611 20.1563 29.9444 20.3501C30.7222 20.7377 30.7222 20.5439 31.1111 20.7377C31.5 20.9315 31.6944 20.9315 31.6944 20.9315C32.2778 20.9315 32.2778 20.5439 32.0833 19.9625Z" fill="#0D0501"/>
<path fill-rule="evenodd" clip-rule="evenodd" d="M36.5558 19.9625C36.5558 19.7687 36.7502 19.5749 37.1391 19.3811V19.5749C37.528 19.1872 37.7224 19.1872 38.1113 18.9934C37.9169 19.1872 37.7224 19.3811 37.528 19.5749C37.9169 19.3811 38.1113 18.9934 38.5002 18.7996C39.6669 18.2182 40.6391 18.0244 41.8058 18.2182C42.3891 18.2182 42.778 18.412 42.9724 18.412C42.778 18.412 42.5836 18.412 42.5836 18.412C43.3613 18.6058 43.7502 19.1872 44.1391 19.7687C43.5558 19.1872 42.9724 18.9934 42.0002 18.9934C41.4169 18.9934 41.028 19.3811 39.8613 19.7687L40.2502 19.5749C39.6669 19.7687 39.278 20.1563 38.6947 20.3501C37.9169 20.7377 37.9169 20.5439 37.528 20.7377C37.1391 20.9315 36.9447 20.9315 36.9447 20.9315C36.5558 20.9315 36.3613 20.5439 36.5558 19.9625Z" fill="#0D0501"/>
<path fill-rule="evenodd" clip-rule="evenodd" d="M38.3057 12.9853C35.7779 12.7915 34.2223 12.0163 31.889 12.9853C29.9446 12.7915 27.6112 12.4039 26.8334 13.1792C26.4446 13.7606 25.8612 14.5358 26.4446 16.2801L25.4723 15.5049C25.0834 17.6368 24.889 18.2182 24.889 20.544L23.7223 19.7687C23.9168 23.4511 24.3057 24.4202 24.3057 27.9088C22.7501 25.1954 23.5279 21.7068 21.7779 20.544C21.389 16.0863 21.389 15.8925 22.3612 11.6287L21.389 12.0163C21.7779 11.241 21.9723 10.8534 22.3612 10.0782C21.7779 10.0782 21.389 10.4658 20.8057 11.0472C21.9723 8.91531 23.9168 7.94625 25.4723 5.81433C24.6946 5.62052 24.1112 6.20195 23.5279 6.39577C24.6946 4.07003 26.0557 3.68241 27.8057 2.90717C27.2223 1.93811 27.2223 2.13192 27.0279 1.16287C28.5834 2.71336 31.1112 2.32573 32.4723 2.13192C31.889 1.55049 31.3057 1.16287 31.5001 0C31.889 0.969055 32.6668 1.16287 33.4446 1.35668L33.0557 0.387622C34.8057 1.55049 36.1668 1.93811 38.1112 2.71335C39.2779 3.29479 43.7501 5.62052 44.139 3.68241C44.5279 4.65147 44.3334 5.03909 43.7501 5.42671C44.5279 5.42671 44.9168 5.42671 45.889 5.2329C45.3057 5.42671 45.1112 5.62052 44.7223 5.81433C47.639 7.36482 47.0557 8.52769 47.639 11.8225C47.2501 10.4658 47.0557 10.0782 46.2779 8.7215C46.6668 10.0782 47.4446 11.8225 47.639 12.9853C47.8334 14.5358 47.2501 15.8925 47.2501 17.2492C47.2501 17.8306 47.639 18.4121 47.4446 18.9935C47.2501 20.544 47.0557 21.7068 46.8612 23.4511C46.6668 22.4821 46.4723 21.7068 46.4723 20.7378C46.0834 22.4821 46.2779 25.0016 44.7223 28.8778C44.9168 27.1335 44.7223 25.3893 44.7223 23.8388C44.7223 21.9007 44.7223 19.9625 44.5279 17.6368C43.9446 13.373 42.5834 12.4039 41.4168 12.5977C40.2501 12.4039 39.0834 12.9853 38.3057 12.9853Z" fill="#301508"/>
<path fill-rule="evenodd" clip-rule="evenodd" d="M59.3056 66.477C60.4723 70.5471 62.4167 75.1985 56.7778 78.8809C60.8612 82.951 61.6389 84.3076 61.2501 90.122C62.2223 86.6334 64.1667 81.2067 61.0556 78.4933C63.7778 75.5861 62.4167 70.1594 60.6667 63.7637L59.3056 66.477Z" fill="#D9966C"/>
<path fill-rule="evenodd" clip-rule="evenodd" d="M78.3611 53.6855C77.7778 59.6937 78.1667 66.2833 80.6945 72.4852C82.6389 75.1986 87.5 76.3614 83.8056 83.1448C78.3611 93.4168 68.0556 100.006 58.1389 105.239C66.3056 100.588 76.6111 93.8044 81.6667 82.1758C82.4445 80.4315 82.8334 78.6872 81.8611 77.5243C80.5 75.9738 78.3611 75.3924 75.8334 75.78L77.9723 74.2295C77.5834 65.1204 74.8611 59.6937 78.3611 53.6855Z" fill="#D9966C"/>
<path fill-rule="evenodd" clip-rule="evenodd" d="M11.4723 68.2217C9.52783 70.935 7.58339 73.6484 6.02783 76.7494C7.77783 79.0751 8.16672 80.0442 8.55561 83.1451L6.61117 83.9204C14.7778 85.8585 22.1667 88.7657 29.1667 93.4171C23.3334 86.4399 17.1112 85.2771 10.1112 83.1451C9.91672 79.0751 9.33339 77.5246 7.77783 76.3617C8.9445 73.6484 10.3056 70.935 11.4723 68.2217Z" fill="#E5A278"/>
</g>
<defs>
<clipPath id="clip0_133_8949">
<rect width="91" height="119" fill="white"/>
</clipPath>
</defs>
</svg>
