<svg width="90" height="59" viewBox="0 0 90 59" fill="none" xmlns="http://www.w3.org/2000/svg">
<g clip-path="url(#clip0_132_6619)">
<path d="M59.4553 12.3997V8.20801L30.1435 8.20801V12.3997L59.4553 12.3997Z" fill="#3882F6"/>
<path d="M60.4901 20.6077H64.6287V4.57764e-05H60.4901V20.6077Z" fill="#3882F6"/>
<path d="M65.6634 17.8098H69.802V2.79281H65.6634V17.8098Z" fill="#3882F6"/>
<path d="M29.114 0.0600586H24.9753V20.6677H29.114V0.0600586Z" fill="#3882F6"/>
<path d="M23.9406 2.85303H19.802V17.87H23.9406V2.85303Z" fill="#3882F6"/>
<path d="M49.0396 36.6574H40.6238L42.1089 5.06909H47.5545L49.0396 36.6574Z" fill="#F7CE46"/>
<path d="M1.32177 50.396C1.32177 48.4154 2.42574 47.3023 4.11386 47.3023C4.77355 47.2991 5.4236 47.4628 6.00495 47.7786L5.5099 49.0873C5.14223 48.9096 4.74349 48.8074 4.33664 48.7865C3.4406 48.7865 2.9406 49.338 2.9406 50.3659V50.7971H5.4505V52.201H2.9406V58.8195H1.32177V52.201H0V50.7971H1.32177V50.396ZM7.55942 47.5229C7.7758 47.5239 7.98701 47.5899 8.16638 47.7125C8.34575 47.8351 8.4852 48.0087 8.5671 48.2116C8.649 48.4145 8.66968 48.6373 8.6265 48.8521C8.58333 49.0669 8.47826 49.2638 8.32456 49.4181C8.17086 49.5724 7.97545 49.677 7.76304 49.7188C7.55062 49.7606 7.33074 49.7376 7.1312 49.6528C6.93167 49.568 6.76142 49.4252 6.64201 49.2425C6.52261 49.0597 6.45941 48.8452 6.46039 48.626C6.45904 48.4799 6.48664 48.3351 6.54152 48.1999C6.5964 48.0648 6.67743 47.9422 6.77989 47.8394C6.88234 47.7366 7.00411 47.6556 7.138 47.6012C7.27189 47.5469 7.4152 47.5202 7.55942 47.5229ZM6.73762 58.8095V50.787H8.35148V58.8095H6.73762Z" fill="black"/>
<path d="M15.7823 58.3331C15.1453 58.7933 14.3761 59.0277 13.5942 59C11.8764 59 10.9952 57.917 10.9952 55.9414V52.201H9.63379V50.797H11.01V47.9541H12.614V50.797H15.3417V52.201H12.614V55.9765C12.614 56.9793 13.0249 57.5108 13.8318 57.5108C14.3263 57.4891 14.8062 57.3351 15.2229 57.0646L15.7823 58.3331Z" fill="black"/>
<path d="M16.8713 58.8095V50.787H18.4555V51.9152C18.7164 51.4842 19.0873 51.1324 19.529 50.8968C19.9707 50.6612 20.4668 50.5505 20.9654 50.5765C21.3699 50.5653 21.7726 50.6358 22.15 50.7838C22.5274 50.9319 22.8719 51.1546 23.1634 51.4388C23.482 51.7675 23.728 52.161 23.885 52.5932C24.042 53.0254 24.1066 53.4865 24.0743 53.9459V58.8245H22.4604V54.4072C22.4604 52.9381 21.6981 52.1208 20.5693 52.1208C19.3515 52.1208 18.5 53.0684 18.5 54.4373V58.8245L16.8713 58.8095Z" fill="black"/>
<path d="M33.4555 55.435H27.2772C27.5099 56.6835 28.3762 57.5309 29.9059 57.5309C30.8639 57.5125 31.796 57.2129 32.5891 56.6685L33.2673 57.8718C32.2661 58.5881 31.0723 58.9766 29.8465 58.985C26.8762 58.985 25.6039 56.8891 25.6039 54.7782C25.5818 54.2268 25.669 53.6765 25.8603 53.1598C26.0516 52.6431 26.3432 52.1705 26.7178 51.7698C27.0961 51.3766 27.5513 51.0678 28.0543 50.8631C28.5573 50.6585 29.0969 50.5626 29.6386 50.5815C30.1519 50.5605 30.664 50.6462 31.1433 50.8333C31.6227 51.0205 32.0591 51.305 32.4257 51.6695C32.7973 52.061 33.0857 52.5255 33.273 53.0343C33.4604 53.5431 33.5427 54.0855 33.5149 54.6278C33.5153 54.898 33.4955 55.1679 33.4555 55.435ZM27.2772 54.0963H31.8663C31.8294 53.5227 31.5749 52.9857 31.1559 52.5978C30.737 52.21 30.1862 52.0013 29.6188 52.0155C29.046 52.0165 28.4929 52.2279 28.0623 52.6106C27.6317 52.9932 27.3527 53.5211 27.2772 54.0963Z" fill="black"/>
<path d="M34.396 57.3203L35.4405 56.3676C35.6489 56.7278 35.9438 57.0289 36.2978 57.2427C36.6517 57.4566 37.0534 57.5764 37.4653 57.591C38.2277 57.591 38.7722 57.1448 38.7722 56.5882C38.7663 56.3825 38.698 56.1837 38.5767 56.0186C38.4554 55.8536 38.2869 55.7303 38.094 55.6656C37.9653 55.5904 37.6386 55.46 37.1435 55.2645C36.8057 55.1285 36.4752 54.9745 36.1534 54.8032C35.7743 54.6364 35.4523 54.3599 35.2278 54.0085C35.0032 53.657 34.8861 53.2463 34.891 52.8277C34.8838 52.5148 34.9459 52.2042 35.0726 51.9187C35.1994 51.6332 35.3877 51.3802 35.6237 51.1781C36.1838 50.7241 36.8872 50.4908 37.6039 50.5212C38.1031 50.495 38.601 50.5938 39.0535 50.8089C39.5059 51.0241 39.8991 51.3489 40.198 51.7547L39.2623 52.7575C39.061 52.4846 38.7995 52.2632 38.4986 52.1108C38.1978 51.9585 37.866 51.8794 37.5297 51.88C36.8663 51.88 36.4703 52.2661 36.4703 52.7575C36.4763 52.9556 36.5436 53.1469 36.6626 53.3043C36.7816 53.4617 36.9463 53.5773 37.1336 53.6349L37.9406 53.9759C38.4356 54.1865 38.8069 54.3469 39.0544 54.4773C39.4483 54.6416 39.7862 54.919 40.0263 55.2754C40.2664 55.6318 40.3984 56.0515 40.4059 56.4829C40.4074 56.8212 40.3344 57.1557 40.1923 57.4618C40.0501 57.768 39.8424 58.0382 39.5841 58.2529C38.9846 58.7463 38.2271 58.9996 37.4554 58.9648C36.8478 58.9866 36.2453 58.8461 35.7083 58.5575C35.1713 58.2688 34.7187 57.8421 34.396 57.3203Z" fill="black"/>
<path d="M41.2229 57.3204L42.2625 56.3677C42.4713 56.7286 42.7669 57.0301 43.1218 57.2441C43.4768 57.458 43.8794 57.5774 44.2922 57.5911C45.0546 57.5911 45.5991 57.1449 45.5991 56.5883C45.5932 56.3826 45.5249 56.1838 45.4036 56.0188C45.2823 55.8537 45.1137 55.7305 44.9209 55.6657C44.7872 55.5905 44.4655 55.4602 43.9655 55.2646C43.6275 55.129 43.2969 54.9751 42.9754 54.8033C42.5963 54.6365 42.2743 54.36 42.0497 54.0086C41.8251 53.6572 41.708 53.2464 41.713 52.8278C41.7057 52.5149 41.7678 52.2043 41.8946 51.9188C42.0213 51.6334 42.2097 51.3803 42.4457 51.1782C43.0042 50.7214 43.7087 50.4877 44.4259 50.5214C44.9258 50.4947 45.4245 50.5933 45.8779 50.8084C46.3312 51.0236 46.7252 51.3486 47.0249 51.7548L46.0843 52.7576C45.8842 52.4845 45.6237 52.2629 45.3236 52.1105C45.0235 51.9581 44.6922 51.8792 44.3565 51.8801C43.6932 51.8801 43.2972 52.2662 43.2972 52.7576C43.3036 52.9549 43.3704 53.1454 43.4884 53.3025C43.6063 53.4597 43.7696 53.5759 43.9556 53.6351L44.7674 53.976C45.2625 54.1866 45.6288 54.347 45.8813 54.4774C46.2752 54.6417 46.613 54.9191 46.8532 55.2755C47.0933 55.6319 47.2253 56.0516 47.2328 56.483C47.2343 56.8214 47.1613 57.1558 47.0192 57.462C46.877 57.7681 46.6692 58.0384 46.411 58.253C45.8115 58.7464 45.054 58.9997 44.2823 58.965C43.6747 58.9867 43.0722 58.8462 42.5352 58.5576C41.9982 58.2689 41.5456 57.8422 41.2229 57.3204Z" fill="black"/>
<path d="M54.6981 50.366V50.7972H57.1733V52.2011H54.6981V58.8196H53.0842V52.2011H51.7625V50.7972H53.0842V50.3359C53.0842 48.3854 54.3021 47.2874 56.1238 47.2874C56.7948 47.2939 57.4541 47.466 58.0446 47.7888L57.5496 49.1125C57.1723 48.93 56.7639 48.8227 56.3466 48.7966C55.2724 48.7866 54.6981 49.3531 54.6981 50.366Z" fill="black"/>
<path d="M58.3811 58.8094V50.7869H59.9257V51.9301C60.1256 51.5053 60.4453 51.15 60.8444 50.9091C61.2435 50.6681 61.7042 50.5523 62.1682 50.5763C62.4867 50.5738 62.8037 50.6194 63.1088 50.7117L62.9603 52.3012C62.6827 52.1991 62.3893 52.1481 62.094 52.1508C60.8613 52.1508 59.9999 53.0131 59.9999 54.6928V58.7993L58.3811 58.8094Z" fill="black"/>
<path d="M71.3019 55.435H65.1187C65.3564 56.6834 66.2227 57.5308 67.7474 57.5308C68.7071 57.5133 69.641 57.2137 70.4356 56.6684L71.1088 57.8718C70.1079 58.5886 68.9139 58.9771 67.688 58.9849C64.7177 58.9849 63.4455 56.889 63.4455 54.7781C63.4243 54.2264 63.5124 53.676 63.7045 53.1593C63.8967 52.6427 64.189 52.1702 64.5643 51.7697C64.9426 51.3765 65.3978 51.0677 65.9007 50.8631C66.4037 50.6584 66.9434 50.5625 67.4851 50.5814C67.9983 50.5607 68.5104 50.6466 68.9897 50.8337C69.469 51.0208 69.9054 51.3052 70.2722 51.6694C70.641 52.0627 70.9272 52.5276 71.1136 53.036C71.2999 53.5445 71.3825 54.086 71.3564 54.6277C71.3588 54.8978 71.3406 55.1677 71.3019 55.435ZM65.1187 54.0962H69.7276C69.692 53.523 69.4385 52.9861 69.0204 52.5981C68.6022 52.2101 68.052 52.0013 67.4851 52.0154C66.9085 52.0124 66.3506 52.2219 65.9152 52.6047C65.4799 52.9875 65.1968 53.5177 65.1187 54.0962Z" fill="black"/>
<path d="M79.1238 50.797H80.6782V58.8195H79.1238V57.7164C78.8008 58.1256 78.3899 58.4548 77.9224 58.679C77.4549 58.9032 76.943 59.0164 76.4258 59.01C75.8944 59.0241 75.3663 58.9226 74.8769 58.7124C74.3876 58.5023 73.9485 58.1883 73.5891 57.7916C72.8473 56.9727 72.448 55.8942 72.4753 54.7832C72.4559 54.2374 72.5444 53.6932 72.7357 53.1826C72.927 52.672 73.2172 52.2052 73.5891 51.8099C73.9552 51.4249 74.3966 51.1218 74.885 50.9197C75.3735 50.7177 75.8983 50.6212 76.4258 50.6366C76.9446 50.6297 77.458 50.7443 77.9259 50.9712C78.3939 51.1982 78.8038 51.5315 79.1238 51.9452V50.797ZM78.4802 56.7136C78.9426 56.1875 79.1981 55.5076 79.1981 54.8032C79.1981 54.0989 78.9426 53.419 78.4802 52.8929C78.2474 52.6363 77.9631 52.4333 77.6462 52.2975C77.3294 52.1617 76.9875 52.0963 76.6436 52.1057C76.3002 52.0943 75.9584 52.1589 75.6421 52.2948C75.3257 52.4308 75.0425 52.6349 74.8119 52.8929C74.3553 53.4248 74.1039 54.1059 74.1039 54.8108C74.1039 55.5156 74.3553 56.1967 74.8119 56.7286C75.044 56.9837 75.328 57.1848 75.6442 57.3181C75.9604 57.4514 76.3013 57.5137 76.6436 57.5008C76.9873 57.5089 77.3288 57.4429 77.6455 57.3072C77.9621 57.1715 78.2466 56.9691 78.4802 56.7136Z" fill="black"/>
<path d="M87.9158 58.8094L85.0693 55.1641L84.3812 55.806V58.8144H82.7673V47.5378H84.3812V53.8856L87.7129 50.797H89.8416L86.203 54.1263L90 58.8094H87.9158Z" fill="black"/>
</g>
<defs>
<clipPath id="clip0_132_6619">
<rect width="90" height="59" fill="white"/>
</clipPath>
</defs>
</svg>
