<svg width="134" height="136" viewBox="0 0 134 136" fill="none" xmlns="http://www.w3.org/2000/svg">
<path d="M85.9766 135.531H37.0938L40.1404 89.8087L57.7747 93.8781L74.9259 87.2804L75.3806 87.1099L75.409 87.0957C75.4151 87.1094 75.4199 87.1237 75.4232 87.1384C75.693 88.225 81.0763 109.779 85.9766 135.531Z" fill="#1D4ED8"/>
<path d="M115.436 97.2725L110.869 135.531H69.6709L74.9259 87.2805L74.9759 86.8115L75.3809 87.1095L75.4229 87.1375L85.5859 94.5525L115.436 97.2725Z" fill="#2F2E41"/>
<path d="M44.3234 135.531H7.42859L6.896 105.412L34.0469 96.4063L40.1403 89.8086C40.1403 89.8086 42.065 109.659 44.3234 135.531Z" fill="#2F2E41"/>
<path d="M133.198 135.531H102.624L104.584 108.124L115.436 97.2725C115.436 97.2725 124.022 115.283 133.198 135.531Z" fill="#2F2E41"/>
<path d="M16.1287 135.531H0C0.07109 126.753 0.113708 120.688 0.113708 118.976C0.0328289 116.33 0.610209 113.706 1.79401 111.338C2.9778 108.97 4.731 106.934 6.89618 105.411L15.0422 108.124L16.1287 135.531Z" fill="#2F2E41"/>
<path d="M13.6125 42.7431C13.6373 35.3059 15.5923 28.0025 19.2861 21.5474C22.98 15.0923 28.2862 9.70662 34.6857 5.91729C48.2816 -2.10906 64.685 -1.96362 79.6892 6.31429C90.3792 12.213 99.0764 27.0549 99.0764 39.3997V75.4204H13.6125V42.7431Z" fill="#2F2E41"/>
<path d="M69.4586 70.7502C84.4177 62.5728 89.9155 43.8169 81.738 28.8577C73.5606 13.8985 54.8047 8.40082 39.8455 16.5782C24.8863 24.7557 19.3886 43.5116 27.566 58.4707C35.7434 73.4299 54.4994 78.9276 69.4586 70.7502Z" fill="#FFB8B8"/>
<path d="M22.4611 43.9559C22.2273 43.6859 21.6796 43.0532 25.4872 13.7548L25.6081 13.2761H25.9524C45.2527 3.7812 64.8341 3.54248 84.1571 12.563C84.752 12.8452 85.2633 13.2772 85.6412 13.8164C86.019 14.3557 86.2502 14.9839 86.3123 15.6394C88.5673 43.1661 88.0223 43.7663 87.7895 44.0228C87.4356 44.4111 87.0047 44.7214 86.5243 44.9339C86.0438 45.1464 85.5244 45.2564 84.9991 45.2569H76.4375L76.258 44.9335C74.7881 42.2019 73.1754 39.5495 71.4266 36.9875C70.6222 39.5378 69.9636 42.1317 69.4538 44.7568L69.3495 45.2569H25.3108C24.7703 45.257 24.2361 45.1409 23.7444 44.9165C23.2527 44.692 22.815 44.3644 22.4611 43.9559Z" fill="#2F2E41"/>
</svg>
