<svg width="374" height="204" viewBox="0 0 374 204" fill="none" xmlns="http://www.w3.org/2000/svg">
<path d="M374 191.241C374 180.107 368.348 171.08 361.375 171.08C356.993 171.08 353.133 174.648 350.87 180.061C350.105 179.744 349.285 179.58 348.457 179.577C346.346 179.577 344.395 180.658 342.804 182.488C340.763 175.738 336.436 171.08 331.428 171.08C326.745 171.08 322.661 175.155 320.482 181.202C319.271 180.18 317.745 179.607 316.161 179.577C310.81 179.577 306.472 186.505 306.472 195.05C306.45 197.898 306.968 200.725 307.999 203.381H371.454C373.052 200.004 374 195.8 374 191.241Z" fill="#3882F6"/>
<path d="M328.739 74.8209C318.796 53.3223 299.34 34.9823 275.835 31.9932C269.62 31.2029 263.131 31.5198 257.365 33.9682C249.796 37.182 244.218 43.6691 238.58 49.6532C226.643 62.3199 213.284 73.5687 198.77 83.177C191.606 87.9179 183.922 92.3412 175.416 93.5542C158.363 95.9863 141.495 84.3617 133.717 68.9977C128.859 59.4001 126.614 48.1318 122.687 38.149C118.163 38.1404 112.775 38.1421 106.977 38.1688C90.9514 38.2426 77.9073 38.4793 77.9073 38.4793C77.9073 38.4793 93.4123 17.95 106.919 25.5559C111.235 27.9866 115.756 30.1556 119.911 31.9828C117.55 27.4445 114.573 23.3611 110.477 20.078C102.401 13.6043 91.463 11.7885 81.1222 12.2706C70.2634 12.7769 59.3049 15.6828 50.4813 22.0294C34.7627 33.3354 28.2716 53.2358 22.7161 71.7791L36.1446 78.5082C41.9046 73.5306 50.3274 68.6067 58.091 72.9786C71.5974 80.5845 87.1129 85.6345 87.1129 85.6345C87.1129 85.6345 74.1746 85.5176 58.1491 85.5914C55.4576 85.6038 52.8534 85.6209 50.3777 85.6405L199.467 160.35C248.641 161.042 285.718 158.384 332.444 160.35C334.881 160.452 340.363 147.683 340.381 144.323C340.51 120.639 338.681 96.3194 328.739 74.8209ZM280.991 81.2645C264.965 81.3383 251.921 81.575 251.921 81.575C251.921 81.575 267.426 61.0457 280.933 68.6517C294.439 76.2576 309.955 81.3076 309.955 81.3076C309.955 81.3076 297.016 81.1907 280.991 81.2645L280.991 81.2645Z" fill="#F2F2F2"/>
<path opacity="0.3" d="M322.748 151.523C322.748 143.427 317.734 136.864 311.548 136.864C307.66 136.864 304.236 139.457 302.227 143.394C301.538 143.161 300.815 143.042 300.087 143.042C298.205 143.074 296.407 143.832 295.072 145.158C293.261 140.25 289.423 136.864 284.979 136.864C280.825 136.864 277.202 139.826 275.268 144.223C274.134 143.462 272.801 143.051 271.435 143.042C266.687 143.042 262.839 148.079 262.839 154.292C262.825 156.388 263.288 158.459 264.193 160.35H320.489C321.999 157.654 322.778 154.612 322.748 151.523Z" fill="#1D4ED8"/>
<path d="M374 203.965H28.3962V203.272H373.654L374 203.965Z" fill="#2F2E41"/>
<path d="M345.604 161.042H0V160.35H345.257L345.604 161.042Z" fill="#2F2E41"/>
<path d="M146.701 97.3157C146.701 97.3157 148.878 81.3604 152.506 85.7119C156.134 90.0633 152.506 96.5905 152.506 96.5905L149.604 100.217L146.701 98.041V97.3157Z" fill="#FFB8B8"/>
<path d="M137.995 102.392C137.995 102.392 145.25 94.4148 146.701 95.8652C148.152 97.3157 152.506 98.041 151.78 100.942C151.055 103.843 135.818 113.271 135.818 113.271L137.995 102.392Z" fill="#1D4ED8"/>
<path opacity="0.1" d="M137.995 102.392C137.995 102.392 145.25 94.4148 146.701 95.8652C148.152 97.3157 152.506 98.041 151.78 100.942C151.055 103.843 135.818 113.271 135.818 113.271L137.995 102.392Z" fill="#3882F6"/>
<path d="M96.6386 101.667V107.469C96.6386 107.469 95.9131 120.523 100.266 119.798C104.62 119.073 102.443 108.194 102.443 108.194L101.717 101.667H96.6386Z" fill="#FFB8B8"/>
<path d="M98.8153 143.731C98.8153 143.731 92.2853 153.884 90.1087 154.61C87.9321 155.335 76.3233 161.862 74.8722 168.389L64.7146 181.443L69.7934 187.971C69.7934 187.971 93.0109 163.312 99.5408 161.137C106.071 158.961 112.601 148.082 112.601 148.082L98.8153 143.731Z" fill="#FFB8B8"/>
<path d="M150.329 127.051C150.329 127.051 164.114 129.226 161.938 137.929C159.761 146.632 138.72 164.763 138.72 164.763L137.995 169.115L130.014 170.565L126.386 166.939L127.112 164.763C127.112 164.763 135.818 156.785 136.544 153.884C137.269 150.983 145.25 139.38 148.878 138.654L143.799 135.753L150.329 127.051Z" fill="#FFB8B8"/>
<path d="M66.8914 181.444C66.8914 181.444 69.7936 177.092 65.4403 177.817C61.087 178.543 58.1848 179.268 58.1848 182.169C58.1848 185.07 61.8125 205.377 66.1658 203.926C70.5191 202.476 66.8914 195.948 66.8914 195.948C66.8914 195.948 69.068 190.146 70.5191 189.421C71.9702 188.696 71.9702 185.07 70.5191 185.07C69.068 185.07 66.1658 182.894 66.8914 181.444Z" fill="#2F2E41"/>
<path d="M128.563 165.488C128.563 165.488 128.563 161.862 125.66 165.488C122.758 169.114 121.307 172.015 124.209 174.191C127.112 176.367 137.269 181.443 137.269 181.443C137.269 181.443 148.152 183.619 146.701 178.542C146.701 178.542 139.446 174.916 139.446 172.015C139.446 169.114 139.446 164.038 137.269 165.488C135.093 166.939 128.563 167.664 128.563 165.488Z" fill="#2F2E41"/>
<path d="M114.777 111.095C114.777 111.095 104.62 112.546 105.345 127.05C105.345 127.05 92.2855 140.105 95.9132 144.456C99.541 148.808 107.522 156.785 110.424 154.61C113.326 152.434 122.033 135.753 122.033 135.753C122.033 135.753 142.348 143.006 145.976 139.38C149.604 135.753 153.231 127.05 153.231 127.05L135.093 117.622L114.777 111.095Z" fill="#2F2E41"/>
<path d="M143.074 69.7564C147.882 69.7564 151.78 65.8599 151.78 61.0535C151.78 56.247 147.882 52.3506 143.074 52.3506C138.265 52.3506 134.367 56.247 134.367 61.0535C134.367 65.8599 138.265 69.7564 143.074 69.7564Z" fill="#FFB8B8"/>
<path d="M136.544 61.7788C136.544 61.7788 131.465 69.7565 130.014 70.4817C128.563 71.2069 140.171 78.4593 140.171 78.4593C140.171 78.4593 140.171 69.0312 143.799 66.8555L136.544 61.7788Z" fill="#FFB8B8"/>
<path d="M135.818 69.7564C135.818 69.7564 124.209 66.1302 122.033 71.9321C119.856 77.7341 114.777 88.6127 115.503 95.8651C116.228 103.117 117.679 101.667 115.503 103.843C113.326 106.018 111.875 104.568 112.601 107.469C113.326 110.37 114.052 110.37 113.326 111.82C112.601 113.271 122.033 118.348 130.014 119.073L137.995 119.798C137.995 119.798 137.995 106.744 139.446 103.843C140.897 100.942 143.799 95.1398 143.799 92.9641V87.2073C143.799 83.3757 142.799 79.6104 140.897 76.2836C140.897 76.2836 136.544 69.7564 135.818 69.7564Z" fill="#3882F6"/>
<path d="M127.112 72.6575C127.112 72.6575 100.267 74.8332 97.3643 82.0856C94.4621 89.338 93.0111 103.843 95.9132 103.843C98.8154 103.843 102.443 105.293 103.169 103.843C103.894 102.392 106.796 87.8875 107.522 87.8875C108.248 87.8875 130.014 85.7118 130.014 85.7118C130.014 85.7118 139.446 74.108 127.112 72.6575Z" fill="#3882F6"/>
<path d="M143.423 58.8959C143.423 58.8959 145.734 54.8824 148.622 58.3685C151.51 61.8546 156.208 55.4483 155.487 54.0814C154.766 52.7144 152.219 54.1428 147.854 52.7166C143.489 51.2903 135.081 48.3847 133.673 57.8629C132.265 67.3411 135.618 66.3474 135.618 66.3474C135.618 66.3474 137.156 57.9487 138.545 60.3612L139.934 62.7737L141.139 63.0701L143.423 58.8959Z" fill="#2F2E41"/>
<path d="M225.546 36.6878C231.412 36.6878 236.168 31.934 236.168 26.0699C236.168 20.2057 231.412 15.4519 225.546 15.4519C219.679 15.4519 214.923 20.2057 214.923 26.0699C214.923 31.934 219.679 36.6878 225.546 36.6878Z" fill="#2F2E41"/>
<path d="M222.15 33.929C222.15 33.929 222.7 43.8192 221.601 43.8192C220.501 43.8192 228.472 48.4896 228.472 48.4896L233.419 45.7423V42.4456C233.419 42.4456 226.823 41.6214 229.571 34.4784C232.32 27.3355 222.15 33.929 222.15 33.929Z" fill="#9F616A"/>
<path d="M199.063 142.447L198.239 150.689L200.987 151.513L203.186 149.315L204.01 142.447H199.063Z" fill="#9F616A"/>
<path d="M238.641 147.117L240.015 152.337L243.863 154.81L247.986 152.612L243.313 144.919L238.641 147.117Z" fill="#9F616A"/>
<path d="M224.761 38.1872C229.163 38.1872 232.732 34.6202 232.732 30.2201C232.732 25.8199 229.163 22.2529 224.761 22.2529C220.359 22.2529 216.791 25.8199 216.791 30.2201C216.791 34.6202 220.359 38.1872 224.761 38.1872Z" fill="#9F616A"/>
<path d="M219.952 60.0282L218.028 59.204C218.028 59.204 214.73 57.2809 214.455 53.4347C214.18 49.5886 217.203 44.6434 217.203 44.6434L221.601 43.2698L226.767 47.4732L226.823 54.2589L219.952 60.0282Z" fill="#9F616A"/>
<path d="M218.028 45.1929L216.928 44.6435C216.928 44.6435 211.431 44.3687 210.882 50.9622C210.332 57.5557 208.408 68.5449 208.408 68.5449C208.408 68.5449 204.011 76.2373 204.285 84.4792L202.087 91.6221C202.087 91.6221 199.063 102.062 202.636 102.062C206.209 102.062 205.934 90.7979 205.934 90.7979C205.934 90.7979 212.531 74.8636 213.08 72.1164C213.63 69.3691 218.302 56.4568 216.928 52.8853C215.554 49.3139 218.028 45.1929 218.028 45.1929Z" fill="#9F616A"/>
<path d="M222.15 62.5007V65.5228C222.15 65.5228 224.074 67.7206 223.25 69.0942C222.425 70.4679 221.601 73.2151 221.601 73.2151L225.448 79.2592L238.366 80.3581L240.935 63.1546L222.15 62.5007Z" fill="#9F616A"/>
<path d="M234.243 43.2699L236.442 42.171C236.442 42.171 241.115 38.8742 244.962 38.3248L256.781 30.3576L264.476 11.9508C264.476 11.9508 264.201 2.06054 266.4 3.15945C268.599 4.25837 268.324 12.775 268.324 12.775C268.324 12.775 264.202 29.8082 260.629 34.4785C257.056 39.1489 244.138 46.8414 244.138 46.8414C244.138 46.8414 240.565 50.9623 240.84 52.8854C241.115 54.8085 234.243 43.2699 234.243 43.2699Z" fill="#9F616A"/>
<path d="M224.074 73.2153C224.074 73.2153 221.051 71.2922 219.127 74.5889C217.203 77.8857 213.63 78.7099 211.431 88.6001C209.233 98.4904 204.011 114.15 202.636 115.249C201.262 116.348 195.49 127.886 198.789 144.095H204.285L208.958 120.743C208.958 120.743 224.074 102.062 225.174 94.3694L230.121 123.216C230.121 123.216 230.396 134.205 234.518 139.425L238.916 149.865L244.688 147.117L238.091 120.743C238.091 120.743 241.389 94.0947 239.191 86.677L238.875 76.9523C238.875 76.9523 229.846 77.3362 224.074 73.2153Z" fill="#2F2E41"/>
<path d="M200.987 149.315H197.689C197.14 149.315 192.742 152.887 194.666 154.81C196.59 156.733 199.613 160.304 199.613 160.304C199.613 160.304 210.332 161.667 210.607 159.744C210.882 157.821 205.935 153.711 205.935 153.711L204.56 149.315C204.56 149.315 201.812 146.293 200.987 149.315Z" fill="#2F2E41"/>
<path d="M244.688 152.063C244.688 152.063 240.015 151.788 239.191 151.513C238.366 151.238 236.717 158.656 239.191 159.206C241.664 159.755 251.834 160.579 251.834 160.579C251.834 160.579 259.804 160.304 259.254 158.107C258.705 155.909 247.986 151.513 247.986 151.513C247.986 151.513 246.612 148.766 244.688 152.063Z" fill="#2F2E41"/>
<path d="M222.975 42.995L221.601 42.1708L219.951 43.5445C219.951 43.5445 224.899 46.8412 223.799 49.8632C222.7 52.8853 218.028 59.204 218.028 59.204C218.028 59.204 222.15 63.8744 222.15 65.5228C222.15 65.5228 232.869 61.6766 240.84 65.5228C240.84 65.5228 240.84 60.0282 241.939 58.9293C243.038 57.8304 243.588 53.9842 240.84 50.6875C238.903 48.2616 237.157 45.6898 235.618 42.9951L232.869 41.3467L231.454 41.7955C231.454 41.7955 234.243 44.9181 231.495 45.1929C228.747 45.4676 224.349 44.6434 222.975 42.995Z" fill="#3882F6"/>
<path d="M233.309 7.96704C232.375 9.0089 231.096 9.67855 229.708 9.85274C227.307 10.1956 229.193 13.967 229.193 13.967C229.193 13.967 228.507 12.5956 229.879 11.3956C231.251 10.1956 233.309 9.50988 233.309 7.96704Z" fill="#2F2E41"/>
<path d="M228.68 17.7148C230.315 17.7148 231.641 16.39 231.641 14.7557C231.641 13.1215 230.315 11.7966 228.68 11.7966C227.045 11.7966 225.72 13.1215 225.72 14.7557C225.72 16.39 227.045 17.7148 228.68 17.7148Z" fill="#2F2E41"/>
<path d="M232.136 17.6694C229.849 16.4753 225.915 15.5362 223.825 15.6033L224.354 13.5825C226.204 14.8393 230.118 15.7959 232.665 15.6486L232.136 17.6694Z" fill="#1D4ED8"/>
<path d="M227.412 17.8472C227.412 17.8472 223.808 22.4788 216.6 23.508C209.392 24.5372 215.055 35.8589 215.055 35.8589C215.055 35.8589 212.996 31.7419 217.115 28.1396C221.233 24.5372 227.412 22.4788 227.412 17.8472Z" fill="#2F2E41"/>
<path d="M227.686 17.5725C227.686 17.5725 229.746 24.7772 232.835 25.8064C235.924 26.8357 234.379 37.6427 229.231 38.672C229.231 38.672 233.607 32.7538 231.033 28.1222C228.459 23.4906 226.914 19.8883 227.686 17.5725Z" fill="#2F2E41"/>
<path d="M276.157 5.49463H257.193V7.69246H276.157V5.49463Z" fill="#2F2E41"/>
<path d="M276.157 13.187C277.068 13.187 277.806 10.235 277.806 6.59349C277.806 2.95201 277.068 0 276.157 0C275.247 0 274.508 2.95201 274.508 6.59349C274.508 10.235 275.247 13.187 276.157 13.187Z" fill="#2F2E41"/>
<path d="M257.193 13.187C258.104 13.187 258.842 10.235 258.842 6.59349C258.842 2.95201 258.104 0 257.193 0C256.282 0 255.544 2.95201 255.544 6.59349C255.544 10.235 256.282 13.187 257.193 13.187Z" fill="#2F2E41"/>
<path d="M285.777 153.304H266.813V155.502H285.777V153.304Z" fill="#2F2E41"/>
<path d="M285.777 160.997C286.688 160.997 287.426 158.045 287.426 154.403C287.426 150.762 286.688 147.81 285.777 147.81C284.866 147.81 284.128 150.762 284.128 154.403C284.128 158.045 284.866 160.997 285.777 160.997Z" fill="#2F2E41"/>
<path d="M266.813 160.997C267.723 160.997 268.462 158.045 268.462 154.403C268.462 150.762 267.723 147.81 266.813 147.81C265.902 147.81 265.164 150.762 265.164 154.403C265.164 158.045 265.902 160.997 266.813 160.997Z" fill="#2F2E41"/>
<path opacity="0.3" d="M67.1815 151.523C67.1815 143.427 62.1669 136.864 55.9811 136.864C52.0932 136.864 48.6689 139.457 46.6607 143.394C45.971 143.161 45.2481 143.042 44.5202 143.042C42.6379 143.074 40.8408 143.832 39.5049 145.158C37.6946 140.25 33.8559 136.864 29.4126 136.864C25.2583 136.864 21.6349 139.826 19.7013 144.223C18.5671 143.462 17.234 143.051 15.868 143.042C11.1207 143.042 7.27228 148.079 7.27228 154.292C7.25838 156.388 7.72147 158.459 8.62651 160.35H64.9227C66.4323 157.654 67.211 154.612 67.1815 151.523Z" fill="#1D4ED8"/>
</svg>
