<svg width="102" height="58" viewBox="0 0 102 58" fill="none" xmlns="http://www.w3.org/2000/svg">
<path fill-rule="evenodd" clip-rule="evenodd" d="M84.7901 14.3523C66.7325 -3.86183 37.2846 -3.86183 19.0091 14.3523C18.0403 15.3195 17.2237 16.1036 16.4729 17.2884L21.3549 22.1934C22.168 21.1917 22.95 20.2245 23.9222 19.2539C39.4437 3.97582 64.3866 3.97582 79.908 19.2539C80.8768 20.2245 81.6623 21.1917 82.4408 22.0035L87.3574 17.0984C86.5754 16.1002 85.7935 15.3195 84.7901 14.3523Z" fill="#009640"/>
<path fill-rule="evenodd" clip-rule="evenodd" d="M38.8485 34.1278C37.8486 35.0984 37.0978 36.0967 36.2812 37.2539L41.6027 42.1589C42.1978 41.1917 42.7618 40.0034 43.7617 39.0328C48.2666 34.5043 55.7505 34.5043 60.0651 39.0328C61.0374 40.0034 61.8193 40.9706 62.2241 42.1589L67.5144 37.0673C66.729 35.8791 65.9471 35.0984 65.1651 34.1312C57.6881 26.8808 46.111 26.8808 38.8485 34.1278Z" fill="black"/>
<path fill-rule="evenodd" clip-rule="evenodd" d="M28.4583 23.7548C27.4584 24.7254 26.6729 25.6926 25.891 26.6943L31.3681 32.1624C32.1812 31.1917 32.9632 30.1935 33.9354 29.2263C43.7618 19.2574 60.0651 19.2574 70.0818 29.2263C70.8637 30.0069 71.6457 31.0087 72.4276 31.9758L77.9359 26.5078C77.1228 25.5061 76.372 24.7254 75.5866 23.7582C62.4145 10.8221 41.4159 10.8221 28.4583 23.7548Z" fill="#E30613"/>
<path d="M4.66404 52.2176L2.6711 56.1381H0L3.36655 49.6511L4.66404 52.2176ZM3.74369 48.9188L5.0308 46.4456L10.0616 56.1381H7.3905L3.74369 48.9188Z" fill="black"/>
<path d="M19.317 49.3161H10.6221L9.38 47.4542H19.317V49.3161ZM13.1064 56.1382H10.6221V49.9378H13.1064V56.1382ZM19.317 53.0363H15.5907L13.7257 51.1744H19.317V53.0363Z" fill="black"/>
<path d="M23.6628 47.4576H29.8734V49.3195H23.6628C23.2476 49.3195 23.04 49.5267 23.04 49.9412V53.6614C23.04 54.076 23.2476 54.2797 23.6628 54.2797H26.7698V56.1416H23.6628C21.5937 56.1416 20.5557 55.316 20.5557 53.6614V49.9412C20.5592 48.2832 21.5937 47.4576 23.6628 47.4576ZM29.8769 56.1381H27.3926V53.0362H25.5277L24.2856 51.1744H29.8769V56.1381Z" fill="black"/>
<path d="M31.119 47.4577H33.6033V56.1382H31.119V47.4577ZM37.949 53.0363H35.4647L34.2226 51.1744H37.949V47.4542H40.4333V56.1347H37.949V53.0363Z" fill="black"/>
<path d="M45.6578 52.2176L43.6649 56.1381H40.9938L44.3603 49.6511L45.6578 52.2176ZM44.7375 48.9188L46.0246 46.4456L51.0554 56.1381H48.3843L44.7375 48.9188Z" fill="black"/>
<path d="M51.6158 45.5958L60.9336 54.8981V58L51.6158 48.6977V45.5958ZM54.1001 52.0449V56.1381H51.6158V49.5647L54.1001 52.0449ZM58.4458 51.5509V47.4577H60.9301V54.0311L58.4458 51.5509Z" fill="black"/>
<path d="M64.66 53.658C64.66 54.0725 64.8676 54.2763 65.2793 54.2763V56.1382C63.2102 56.1382 62.1722 55.3126 62.1722 53.658V49.9378C62.1722 48.2832 63.2068 47.4577 65.2793 47.4577H67.7636V49.3195H65.2793C64.8641 49.3195 64.66 49.5268 64.66 49.9413V53.658ZM68.3863 56.1382H65.9021V54.2763H68.3863C68.8015 54.2763 69.0057 54.0691 69.0057 53.658V52.418H71.4899V53.658C71.4899 55.3126 70.4554 56.1382 68.3863 56.1382ZM69.0057 49.9378C69.0057 49.5233 68.7981 49.3161 68.3863 49.3161V47.4542C70.4554 47.4542 71.4934 48.2798 71.4934 49.9344V51.1744H69.0091V49.9378H69.0057Z" fill="black"/>
<path d="M81.427 49.3161H72.7321L71.49 47.4542H81.427V49.3161ZM72.7321 49.9378H75.2164V54.2798H81.427V56.1416H72.7321V49.9378ZM81.427 53.0363H77.7006L75.8357 51.1744H81.427V53.0363Z" fill="black"/>
<path d="M85.1568 53.658H82.6726V47.4576H85.1568V53.658ZM82.6691 54.2763H91.364V56.1381H82.6691V54.2763Z" fill="black"/>
<path d="M95.0939 53.658H92.6096V47.4576H95.0939V53.658ZM92.6096 54.2763H101.305V56.1381H92.6096V54.2763Z" fill="black"/>
</svg>
